<svg xmlns="http://www.w3.org/2000/svg" xmlns:xlink="http://www.w3.org/1999/xlink" version="1.1" width="841.89pt" height="595.276pt" viewBox="0 0 841.89 595.276">
<defs>
<clipPath id="clip_0">
<path transform="matrix(1,0,0,-1,0,595.276)" d="M0 0H842.01V595.396H0V0" fill-rule="evenodd"/>
</clipPath>
</defs>
<g id="layer_1" data-name="">
<g id="layer_2" data-name="">
<g id="layer_3" data-name="">
<g id="layer_4" data-name="">
<g id="layer_5" data-name="">
<g clip-path="url(#clip_0)">
<path transform="matrix(1,0,0,-1,340,207.97602)" d="M0 0C-5.7-5.3-12.9-11-19.8-17.5-21.8-19.3-23.8-21.2-25.7-23.2-29.1-26.6-33.7-31.4-38.3-36.1-45.6-43.8-52.8-51.5-54.6-54-57.6-58-67.8-67.6-72-85.2-72.1-85.4-72.1-85.7-72.2-85.9-75.1-98.9-76-101.6-76.2-104.4-76.3-105.5-76.3-106.6-76.3-108.3-76.3-110.2-76.3-112.4-76.4-114.6-76.5-119.4-76.6-124.2-76.3-126.2-75.8-129.1-74.8-133.3-72.6-138.9-68.4-148.5-67.7-149.9-67-151.3-66.8-151.8-66.7-152.2-66.4-152.8-65.9-154.2-64.7-156.3-63.4-158.4-62.1-160.7-60.6-163-59.9-164.1-58.9-165.5-55.2-171.4-50.8-177-48.6-179.7-46.2-182.3-44-184.3-37.1-190.1-31.2-195.3-25.2-198.4-21.7-200.1-14.7-204.1-7.4-207.5-1.8-210.2 3.9-212.5 8.4-213.3 13.5-214.3 15-214.7 16.6-215.3 18-215.8 19.3-216.3 22.7-217.2 19.4-212.9 19.7-211.2 19.8-209.7 19.9-209.5 19.9-209.3 19.9-209.1 18.1-209.1 7.9-207.7-24.7-189.9-33-184.4-38.8-179.9-44.1-174.4-45.6-172.8-47.1-171.2-48.6-169.4-54.8-162.2-59.9-152.7-63.3-144-63.7-143.1-64-142.3-64.3-141.4-65.6-137.8-66.6-135.1-67.3-132.3-68.4-127.8-68.9-123-68.9-113.8-68.9-102.1-66.9-95.7-64.2-89-63.4-87.2-62.6-85.4-61.8-83.4-58.8-76.2-58.4-76.3-58.1-76.3-58.1-76.4-58-76.4-57.9-76.2-57.8-76.1-57.7-76-57.6-75.8-57.3-75.5-57.1-75.2-56.8-75.3-56.6-75.4-56.5-76-56.5-77.5-56.5-79.5-57.5-81.4-58.8-85.1-59.8-88.1-61-92.3-61.8-98.6-62.8-106.5-62.7-110.7-62.2-115-61.7-118.5-60.9-122.1-60.2-127.7-59.2-136.1-56.5-141.6-52.4-147.8-50.3-150.8-47.9-154.1-45.2-158-39-166.8-33.2-169.6-27.6-172.5-25.7-173.4-23.8-174.4-21.9-175.6-20.5-176.6-19.5-177.1-18.8-177.3-18.5-177.4-18.2-177.4-18-177.3-17.9-177.3-17.8-177.2-17.7-177-17.6-176.4-18.4-175-19.4-173.8-20-173.2-20.6-172.6-21.1-172.2-22.5-171.2-26.7-165.3-30.7-159.4-34.1-154.4-37.4-149.3-38.8-147.1-40-145.4-41.2-143.1-42.3-140.9-44.4-136.7-46.2-132.5-46.7-131.6-47.3-130.6-48.2-127.5-48.8-124.3-49-122.7-49.2-121-49.2-119.6-49.2-117.9-49.2-115-49.1-112.1-49-108.2-48.7-104.3-47.9-103.2-47.8-103-47.6-102.8-47.5-102.8-47.3-102.8-47.2-102.9-47.1-103-46.8-103.3-46.6-104.1-46.4-105.1-46-107.1-45.8-110.5-45.8-114.6-45.8-118.7-45.3-121.2-44.2-123.9-43.1-126.6-41.4-129.5-39.1-134.4-36.3-140.3-31.9-146.4-27.3-151.8-24.2-155.3-21.1-158.4-18.5-160.9-17.5-161.8-16.5-162.7-15.5-163.5-9.7-168.9-3.7-173.9-.8-175.7 2.6-177.8 4.4-178.8 6.9-178.8 7.5-178.8 7.8-178.7 7.9-178.4 8-178.1 7.8-177.6 7.5-177 6.9-175.8 5.6-174.1 4.3-171.8 3.2-169.8 1.5-167.3-.3-164.9-2.5-161.7-4.7-158.6-5.7-156.4-6.2-155.3-6.8-154.1-7.4-152.8-8.7-149.7-9.8-146.5-9-145.1-8.9-144.8-8.7-144.8-8.5-144.8-8.3-144.9-8.1-145.1-7.8-145.4-7.3-146.1-6.6-147.2-5.8-148.6-4.2-151.4-2-155.5 .9-159.4 1.4-160.1 2-160.9 2.6-161.6 5.7-165.5 10.2-170 14.8-174.2 20-179 25.5-183.2 29.7-185.5 35.4-188.7 35.4-188.9 35.5-189 35.5-189 35.6-189 35.9-189.2 36.7-189.6 37.4-189.2 37.9-188.9 38-188.8 38.2-188.7 38.3-188.6 38.6-188.4 38.8-187.6 38.4-185.8 38.4-183.8 33.5-178.6 28.9-173.1 27.5-171.5 26.2-169.9 25-168.3 23.1-165.8 21.1-162.5 19.3-159.2 15.9-153.2 13-147.2 12.1-145.7 11.4-144.5 9.5-139.6 8-134.5 6.4-129.3 5.2-124 5.9-122.6 6.2-121.9 6.6-121.7 7-121.8 7.4-121.9 7.8-122.4 8.3-123.2 9.2-124.7 10.3-127.4 11.6-130.6 14.2-136.9 18.2-143.5 22.8-152.4 24.8-156.3 28.3-160.5 31.9-164.4 36.7-169.6 41.7-174.2 43.4-176.2 46.3-179.7 47-181.7 48.9-181.7 49.9-181.7 50.5-181.3 50.9-180.7 51.3-180 51.5-179.1 51.5-177.9 51.5-175.6 48.2-171.4 44.4-166.3 41.8-162.7 40.5-161.5 39.5-160.1 39.1-159.5 38.8-158.9 38.4-158 37.9-156.6 38-156 38.4-155.8 38.7-155.6 39.3-155.8 39.8-156.1 39.9-156.1 40-156.2 40-156.2 40.2-156.4 40.4-156.5 40.5-156.6 40.8-156.9 41-157.5 44.5-162 46-163.9 47.8-166 49.7-167.9 53.3-171.6 57-174.7 58.8-175.9 61.5-177.7 67.1-171.7 82.1-165.2 92.6-160.7 102-157.3 112.5-154.9 117-153.9 121.6-153.1 126.6-152.4 139-150.7 140.8-150.3 142.6-150.2 143.3-150.1 143.9-150.1 145.1-150.1 147.9-150.1 149.2-142.2 150.5-134.4 151.2-130.1 151.8-125.8 152.6-122.8 154.3-116.3 153.4-108.4 152.9-99.8 152.7-97.2 152.6-94.5 152.6-91.8 152.6-91.1 152.7-90.4 152.8-89.7 153.1-88.7 153.4-87.8 153.8-87.6 154-87.5 154.2-87.6 154.4-88 154.6-88.3 154.7-88.8 154.9-89.7 155.7-94.3 157-103.8 157-116.1 157-119.5 156.7-123.3 156.4-127 155.4-136.5 153.9-145.6 155.4-147.2 156.8-148.5 157.3-149.1 158.5-149 159.1-149 159.9-148.7 161.2-148.3 164.6-147.4 166.5-142.2 168.4-137.1L168.7-136.3C169.6-133.8 170.4-130.9 171.1-128.1 171.9-124.7 172.6-121.4 173.4-118.8 174.1-116.3 175.1-116.2 176.1-116.2 177-116.1 178-116 178.7-114 179.7-110.6 180-108.9 180.1-107.2 180.3-104.9 180.2-102.6 181-96.5 182.6-85.5 184.2-79.9 182.6-74.3 182.2-72.9 181.8-71.5 181.3-70.3 180.7-68.4 180.2-66.8 180-65.8 180-65.3 180-65 180.1-64.8 180.3-64.7 180.6-64.8 181-65.1 182.4-66 183.8-67.9 184.9-70 185.8-71.7 186.5-73.6 186.5-74.7V-92.2C186.5-105.3 186.9-112.9 188.7-112.9 190.3-112.9 191.6-110.3 192-107.8 192.1-107.3 192.1-106.9 192.1-106.5 192.6-104.5 193.1-103 193.5-101.6 194.2-98.9 194.7-96.2 195.4-90 195.7-86.5 196.2-83.2 196.6-80 197.2-74.4 197.5-69 196.3-63 194.9-55.3 192.1-48.1 191.1-44.9 190.9-44.2 190.8-43.6 190.8-43.4 190.8-43 190.8-42.6 190.8-42.4 190.8-42.3 190.8-42.2 190.8-42.1 190.9-42 190.9-42 191-42 191.3-42.1 192-42.9 193.5-44.9 196.5-49 199.7-55.2 201.2-61.9 201.5-63.3 201.8-64.8 201.9-66.2 202.6-71.2 202.6-76.8 202.6-88.4 202.6-103.4 199.1-108.9 201.1-110.2 202-110.8 202.6-110.7 203.2-110 203.8-109.3 204.4-108.2 205.2-106.8 206.9-104.1 208.9-97.5 211.1-86.9 212.5-80.1 212.3-75.1 211.9-70 211.7-67 211.5-64.1 211.5-60.7 211.5-51.4 208.5-46.2 206.5-42.2 205.2-39.5 203.7-36.3 202-33.1 201.1-31.4 200.1-29.8 199.1-28.3 198-26.6 195.8-24.5 193.5-22.3 191.6-20.6 189.7-18.8 188.4-17.4 187.8-16.7 187.3-16.1 187.1-15.6 186.9-15.1 186.9-14.8 187.3-14.6 188.5-13.9 190.2-14.8 191.8-15.6 193.1-16.4 194.4-17.2 195-17.2 197.2-19.2 199.1-20.6 200.9-22 204-24.5 206.8-27.1 210.5-33.2 215-40.9 217.9-45.5 219.8-50.8 220.3-52.3 220.7-53.8 221.1-55.5 221.8-58.5 222.5-61.7 223.1-65 224-70.1 224.7-75.3 224.7-79.3 224.7-80.2 224.7-81.2 224.7-82.1 224.7-87.6 224.4-93 221.8-100.9 221-103.5 220.3-105.7 219.5-107.9 217.5-113.6 214.9-119.2 208.8-130.4 200.4-145.9 197-153.7 193.7-157.3 194.6-159.5 194.6-160.6 194.5-161.8 194.5-162.4 194.4-163 194.4-163.8 194.4-164.3 194.4-164.6 194.4-164.9 195.6-163.3 196.3-162.3 197-161.3 197.8-160.1 198.7-159 200.7-156.8 202.9-154.3 205.1-152 207.3-149.7 209.2-147.6 211.1-145.6 212.7-143.4 213.2-142.6 213.8-141.9 214.3-141.1 217-137.2 219.5-133.4 220.8-130.8 221.2-130.1 221.5-129.4 221.8-128.7 222.7-126.5 223.5-124 225.6-118.4 228.4-111.1 230.5-105.7 231.3-100.8 231.9-96.9 232-95.5 232-94.1 232-93.8 232-93.4 232-93 232-92.1 232.5-88 232.9-84 233.4-79.8 233.9-75.6 233.9-74.9 233.9-73.4 233.9-69.7 233.1-66 232.8-64.6 232.5-63 232.1-61.4 231.6-58.8 230.9-56.2 230.1-54.4 229.1-52.2 226.9-45.9 223.9-39.7 222.6-37.3 221.3-34.9 219.8-32.8 216.2-27.8 209.7-17.7 200.4-9.2 196.2-5.4 191.4-1.8 186 .7 175.3 5.8 161.3 10.6 147.5 13.9 139 16 130.5 17.4 122.9 18 106.8 19.3 99.1 20 91.4 22 89.6 22.5 87.8 23.1 85.8 23.7 82.1 25 78.4 26.1 74.6 27.2 71.4 28.2 68.2 29.1 64.9 30.2 64.9 29.7 65.9 28.6 68.6 26.9 71.2 25.3 71.3 24.3 71.3 23V22.8C71.3 22.2 70.7 21.8 69.9 21.7 69.1 21.5 67.9 21.5 66.7 21.5 65.4 21.5 64.1 21.7 63 21.9 62 22.1 61.1 22.3 60.6 22.3 60.1 22.3 59.9 22.2 59.8 22 59.7 21.8 59.7 21.6 59.9 21.4 60.3 20.8 61.5 20.8 62.8 20.4H62.9C64.1 20 64.9 19.2 65.4 18.7L65.6 18.5C65.9 18.2 65.9 17.8 65.8 17.4 65.7 17.2 65.6 17 65.6 16.9 65.6 16.7 65.3 16.6 64.9 16.4 64.8 16.3 64.6 16.2 64.5 16.2 64 15.8 63.3 16.8 62.1 18.1 61.4 18.9 60.9 18.8 60.2 18.6 59.6 18.5 59 18.4 58 18.6 57 18.8 56.3 18.6 55.6 18.5 54.9 18.4 54.2 18.3 53.2 19.2 52.5 19.9 52.1 20.1 51.9 20.2 51.6 20.2 51.4 20 51.2 19.8 51 19.7 50.9 19.5 50.7 19.4 50.5 19.3 50.3 19.2 50.2 19.1 49.5 18.8 49 18.5 48.6 15.4 48.2 11.7 48.6 11.2 48.6 10.8V10.7C48.6 10.2 47.9 9.4 46.6 9.4 45.6 9.4 45.2 10.2 44.7 11.1 44.5 11.3 44.4 11.6 44.2 11.8 43.7 12.5 43.2 12.3 42.8 12 42.6 11.9 42.3 11.8 42.1 11.8 41.7 11.8 41.7 12.1 41.6 12.4 41.5 12.8 41.3 13.2 40.4 13.2 39.6 13.2 39.2 13.6 38.9 14 38.7 14.2 38.5 14.3 38.3 14.4 38.2 14.4 38 14.3 37.7 14 37 13.2 37.9 12.6 38.9 11.6 39.3 11.2 39.7 10.7 40 10.2 40.5 9.2 40.8 9 41.1 8.8 41.5 8.5 41.7 8.2 42.1 6.7 42.6 4.7 43.2 4.2 43.7 3.6 43.9 3.4 44 3.2 44.2 2.9 44.4 2.4 44.4 1.9 44.2 1.6 43.9 1.4 43.4 1.2 42.7 1.2 41.4 1.2 40.1 3.3 38.6 5.4 38.3 5.8 38 6.3 37.6 6.7 36.3 8.4 36.1 8.6 35.7 8.6 35.5 8.6 35.2 8.6 34.8 8.6 33.7 8.6 33.5 8.9 33.2 9.6 33.1 9.8 33 10.1 32.8 10.4 32.4 11 32 11.3 31.6 11.5 31.1 11.6 30.7 11.5 30.3 11.1 29.9 10.7 29.9 10.4 30 9.9 30 9.5 30 9 29.8 8.4 29.5 7.6 29.3 7.4 29.2 7.2 29 7 29 6.8 29 6.3 29 5.5 29 5.1 28.9 4.6 28.8 4.4 28.7 4.1 28.5 3.7 28.3 3.2 28 3.1 27.7 3.1 27.3 3.1 27 3.3 26.5 3.6 25.7 4.1 25.2 5.3 24.8 7 24.5 8.1 24.6 8.4 24.4 8.5 24.3 8.6 24.1 8.7 23.8 8.9 23.1 9.2 23.4 9.7 23.6 10.4 23.7 10.8 23.8 11.1 23.8 11.5 23.8 11.8 23.7 12 23.6 12.1 23.5 12.2 23.4 12.2 23.2 12.2 22.9 12.1 22.6 11.7 22.3 11.1 22 10.5 21.2 9.7 20.4 9 19.9 8.6 19.4 8.2 19.1 7.8 18.5 7.2 18.5 6.9 18.6 6.4 18.6 6.1 18.7 5.8 18.6 5.3 18.3 4.5 17.8 4.1 17.2 3.8 17 3.7 16.8 3.6 16.7 3.4 16.4 3.2 16.1 3.3 15.9 3.4 15.7 3.6 15.6 3.8 15.4 4.1 15.4 4.3 15.3 4.5 15.3 4.6V7.4C15.3 8.4 15.8 8.8 16.3 9.3 16.5 9.5 16.7 9.6 16.9 9.8 17.2 10.2 17.2 10.6 17 10.9 16.8 11.3 16.4 11.5 15.9 11.5 15.3 11.5 15.1 10.8 14.6 9.9 14.4 9.5 14.1 9.1 13.8 8.7 13.2 8.1 13 8 12.7 8 12.3 7.9 11.9 7.9 10.9 6.9 9.2 5.2 8.7 4.7 8.1 4.3L8 4.2C7.7 4 7.3 4.1 6.9 4.5 6.5 4.9 6.1 5.5 5.6 6.4 4.1 4.3 2.3 2.1 0 0M136.2-100.3C136.8-101 137.7-104.3 138.6-107.6 138.8-108.3 139.1-109.1 139.3-109.9 140.3-112.5 139.8-117.2 139.5-122 139.4-123.6 139.3-125.2 139.3-126.8 139.3-128.3 139.2-129.3 139-129.6 138.9-129.8 138.8-129.9 138.6-129.8 138.5-129.8 138.3-129.6 138.1-129.3 137.4-128.1 136.4-125.3 135.1-121.8 133.4-116.9 133.1-110.9 133.7-105.9 133.9-103.7 134.3-101.8 134.9-100.2 135.1-99.7 135.2-99.6 135.4-99.6 135.6-99.7 135.8-99.9 136.2-100.3" fill="#d12600" fill-rule="evenodd"/>
<path transform="matrix(1,0,0,-1,611.1,467.176)" stroke-width="0" stroke-linecap="butt" stroke-linejoin="bevel" fill="none" stroke="#000000" d="M0 0C22.7 25.7 40.2 55.7 51.3 88.2 62.5 120.6 67.1 155 65 189.2 62.8 223.5 54 257 38.9 287.8 23.8 318.7 2.8 346.2-22.9 369-48.6 391.7-78.6 409.1-111.1 420.3-143.5 431.4-177.9 436-212.1 433.9-246.4 431.8-279.9 422.9-310.7 407.8-341.6 392.8-369.1 371.8-391.9 346-414.6 320.3-432 290.3-443.2 257.9-454.3 225.4-458.9 191.1-456.8 156.8-454.7 122.5-445.8 89-430.8 58.2-415.7 27.4-394.7-.2-368.9-22.9-343.2-45.6-313.3-63.1-280.8-74.2-248.3-85.4-214-90-179.7-87.9-145.4-85.7-111.9-76.9-81.1-61.8-50.3-46.7-22.7-25.7 0 0"/>
<path transform="matrix(1,0,0,-1,606.7,463.276)" stroke-width="0" stroke-linecap="butt" stroke-linejoin="bevel" fill="none" stroke="#000000" d="M0 0C22.2 25.2 39.3 54.4 50.1 86.2 61 117.9 65.6 151.5 63.5 185 61.4 218.5 52.8 251.2 38 281.4 23.3 311.5 2.7 338.4-22.4 360.7-47.6 382.9-76.8 399.9-108.6 410.8-140.3 421.7-173.9 426.2-207.4 424.1-240.9 422.1-273.6 413.4-303.8 398.7-333.9 383.9-360.8 363.4-383.1 338.2-405.3 313.1-422.3 283.8-433.2 252.1-444.1 220.3-448.6 186.8-446.5 153.3-444.5 119.8-435.8 87-421.1 56.9-406.3 26.7-385.8-.2-360.6-22.4-335.5-44.6-306.2-61.7-274.5-72.6-242.7-83.4-209.2-88-175.7-85.9-142.2-83.8-109.4-75.2-79.3-60.4-49.1-45.7-22.2-25.1 0 0"/>
<path transform="matrix(1,0,0,-1,562.4,424.176)" stroke-width="0" stroke-linecap="butt" stroke-linejoin="bevel" fill="none" stroke="#000000" d="M0 0C17.1 19.3 30.2 41.8 38.6 66.2 47 90.6 50.5 116.5 48.9 142.2 47.3 168 40.6 193.1 29.3 216.3 17.9 239.5 2.1 260.2-17.2 277.3-36.5 294.4-59 307.5-83.4 315.8-107.8 324.2-133.7 327.7-159.4 326.1-185.2 324.5-210.3 317.8-233.5 306.5-256.7 295.2-277.4 279.4-294.5 260.1-311.6 240.7-324.7 218.2-333 193.8-341.4 169.4-344.9 143.6-343.3 117.8-341.7 92.1-335 66.9-323.7 43.7-312.4 20.5-296.6-.2-277.3-17.2-257.9-34.3-235.4-47.4-211-55.8-186.6-64.2-160.8-67.7-135-66.1-109.3-64.5-84.1-57.8-60.9-46.5-37.8-35.1-17-19.3 0 0"/>
</g>
</g>
</g>
</g>
</g>
<g id="layer_1" data-name="">
<g id="layer_2" data-name="">
<g id="layer_3" data-name="">
<g id="layer_4" data-name="">
<g id="layer_5" data-name="">
<path transform="matrix(1,0,0,-1,267.4,346.876)" stroke-width=".96" stroke-linecap="butt" stroke-linejoin="round" fill="none" stroke="#000000" d="M0 0C5.4-12.4 5.1-11.1 6.2-13.9"/>
<path transform="matrix(1,0,0,-1,273.6,360.776)" stroke-width=".96" stroke-linecap="butt" stroke-linejoin="round" fill="none" stroke="#000000" d="M0 0C1.1-2.8 5.1-9.2 6.5-11.3"/>
<path transform="matrix(1,0,0,-1,280.1,372.076)" stroke-width=".96" stroke-linecap="butt" stroke-linejoin="round" fill="none" stroke="#000000" d="M0 0C1.4-2 9-14.3 15.9-20.2"/>
<path transform="matrix(1,0,0,-1,296,392.276)" stroke-width=".96" stroke-linecap="butt" stroke-linejoin="round" fill="none" stroke="#000000" d="M0 0C6.9-5.8 12.8-11 18.8-14.1"/>
<path transform="matrix(1,0,0,-1,314.8,406.376)" stroke-width=".96" stroke-linecap="butt" stroke-linejoin="round" fill="none" stroke="#000000" d="M0 0C6.1-3 23.2-13 33.6-14.9"/>
<path transform="matrix(1,0,0,-1,348.4,421.276)" stroke-width=".96" stroke-linecap="butt" stroke-linejoin="round" fill="none" stroke="#000000" d="M0 0C10.4-2 6.1-1.9 17.3-4.7"/>
<path transform="matrix(1,0,0,-1,365.7,425.976)" stroke-width=".96" stroke-linecap="butt" stroke-linejoin="round" fill="none" stroke="#000000" d="M0 0C11.2-2.9 19.5-1.6 25.9-1.6"/>
<path transform="matrix(1,0,0,-1,391.6,427.576)" stroke-width=".96" stroke-linecap="butt" stroke-linejoin="round" fill="none" stroke="#000000" d="M0 0C6.4 0 20.1 1.1 26.6 2.9"/>
<path transform="matrix(1,0,0,-1,418.2,424.676)" stroke-width=".96" stroke-linecap="butt" stroke-linejoin="round" fill="none" stroke="#000000" d="M0 0C6.5 1.8 21.3 5.9 35.6 10"/>
<path transform="matrix(1,0,0,-1,453.8,414.676)" stroke-width=".96" stroke-linecap="butt" stroke-linejoin="round" fill="none" stroke="#000000" d="M0 0C14.4 4.2 28.2 8 41.7 14.4"/>
<path transform="matrix(1,0,0,-1,495.5,400.276)" stroke-width=".96" stroke-linecap="butt" stroke-linejoin="round" fill="none" stroke="#000000" d="M0 0C13.5 6.3 21.1 11.4 24.7 14"/>
<path transform="matrix(1,0,0,-1,520.2,386.276)" stroke-width=".96" stroke-linecap="butt" stroke-linejoin="round" fill="none" stroke="#000000" d="M0 0C3.7 2.6 7.3 4.2 12.1 10.6"/>
<path transform="matrix(1,0,0,-1,532.3,375.676)" stroke-width=".96" stroke-linecap="butt" stroke-linejoin="round" fill="none" stroke="#000000" d="M0 0C4.8 6.4 4.1 6.1 8.4 10.9"/>
<path transform="matrix(1,0,0,-1,540.7,364.776)" stroke-width=".96" stroke-linecap="butt" stroke-linejoin="round" fill="none" stroke="#000000" d="M0 0C4.2 4.8 8.7 8.9 12 13.4"/>
<path transform="matrix(1,0,0,-1,552.7,351.376)" stroke-width=".96" stroke-linecap="butt" stroke-linejoin="round" fill="none" stroke="#000000" d="M0 0C3.3 4.6 6.6 9.5 8.1 12.6"/>
<path transform="matrix(1,0,0,-1,560.8,338.776)" stroke-width=".96" stroke-linecap="butt" stroke-linejoin="round" fill="none" stroke="#000000" d="M0 0C1.6 3.1 2.1 5.1 4.8 12.4"/>
<path transform="matrix(1,0,0,-1,565.6,326.376)" stroke-width=".96" stroke-linecap="butt" stroke-linejoin="round" fill="none" stroke="#000000" d="M0 0C2.8 7.3 4.9 12.7 5.7 17.6"/>
<path transform="matrix(1,0,0,-1,571.3,308.776)" stroke-width=".96" stroke-linecap="butt" stroke-linejoin="round" fill="none" stroke="#000000" d="M0 0C.7 4.9 .7 5.8 .7 7.8"/>
<path transform="matrix(1,0,0,-1,572,300.976)" stroke-width=".96" stroke-linecap="butt" stroke-linejoin="round" fill="none" stroke="#000000" d="M0 0C0 1.9 1.9 16.7 1.9 18.1"/>
<path transform="matrix(1,0,0,-1,573.9,282.876)" stroke-width=".96" stroke-linecap="butt" stroke-linejoin="round" fill="none" stroke="#000000" d="M0 0C0 1.5 0 5.2-.8 8.9"/>
<path transform="matrix(1,0,0,-1,573.1,273.976)" stroke-width=".96" stroke-linecap="butt" stroke-linejoin="round" fill="none" stroke="#000000" d="M0 0C-.8 3.7-1.7 8.6-3 11.6"/>
<path transform="matrix(1,0,0,-1,570.1,262.376)" stroke-width=".96" stroke-linecap="butt" stroke-linejoin="round" fill="none" stroke="#000000" d="M0 0C-1.3 3-5.1 14.3-10.3 21.6"/>
<path transform="matrix(1,0,0,-1,559.8,240.776)" stroke-width=".96" stroke-linecap="butt" stroke-linejoin="round" fill="none" stroke="#000000" d="M0 0C-5.2 7.3-16.6 25.3-33.8 33.5"/>
<path transform="matrix(1,0,0,-1,526,207.276)" stroke-width=".96" stroke-linecap="butt" stroke-linejoin="round" fill="none" stroke="#000000" d="M0 0C-17.2 8.2-43 15.7-63.1 17.3"/>
<path transform="matrix(1,0,0,-1,462.9,189.97602)" stroke-width=".96" stroke-linecap="butt" stroke-linejoin="round" fill="none" stroke="#000000" d="M0 0C-20 1.6-27.1 2.4-37.1 5.7"/>
<path transform="matrix(1,0,0,-1,425.8,184.276)" stroke-width=".96" stroke-linecap="butt" stroke-linejoin="round" fill="none" stroke="#000000" d="M0 0C-10 3.4-20.3 5.8-30.8 10.1"/>
<path transform="matrix(1,0,0,-1,395,174.176)" stroke-width=".96" stroke-linecap="butt" stroke-linejoin="round" fill="none" stroke="#000000" d="M0 0C-10.6 4.3-25.6 15.2-28.3 16.2"/>
<path transform="matrix(1,0,0,-1,366.7,157.97602)" stroke-width=".96" stroke-linecap="butt" stroke-linejoin="round" fill="none" stroke="#000000" d="M0 0C-2.6 1.1-3.3 1.7-4.4-.1"/>
<path transform="matrix(1,0,0,-1,362.3,158.07599)" stroke-width=".96" stroke-linecap="butt" stroke-linejoin="round" fill="none" stroke="#000000" d="M0 0C-1-1.8-.5-3-1.9-9.5"/>
<path transform="matrix(1,0,0,-1,360.4,167.57599)" stroke-width=".96" stroke-linecap="butt" stroke-linejoin="round" fill="none" stroke="#000000" d="M0 0C-1.4-6.6-6.8-19.4-7.6-21"/>
<path transform="matrix(1,0,0,-1,352.8,188.57599)" stroke-width=".96" stroke-linecap="butt" stroke-linejoin="round" fill="none" stroke="#000000" d="M0 0C-2.6-5-5.5-12.5-12.8-19.4"/>
<path transform="matrix(1,0,0,-1,340,207.97602)" stroke-width=".96" stroke-linecap="butt" stroke-linejoin="round" fill="none" stroke="#000000" d="M0 0C-7.3-6.8-17.1-14.3-25.7-23.2"/>
<path transform="matrix(1,0,0,-1,314.3,231.176)" stroke-width=".96" stroke-linecap="butt" stroke-linejoin="round" fill="none" stroke="#000000" d="M0 0C-8.7-8.9-26-26.7-28.9-30.8"/>
<path transform="matrix(1,0,0,-1,285.4,261.976)" stroke-width=".96" stroke-linecap="butt" stroke-linejoin="round" fill="none" stroke="#000000" d="M0 0C-3-4.1-13.5-13.9-17.6-31.9"/>
<path transform="matrix(1,0,0,-1,267.8,293.876)" stroke-width=".96" stroke-linecap="butt" stroke-linejoin="round" fill="none" stroke="#000000" d="M0 0C-4.1-18-4.1-16.2-4.1-22.4"/>
<path transform="matrix(1,0,0,-1,263.7,316.276)" stroke-width=".96" stroke-linecap="butt" stroke-linejoin="round" fill="none" stroke="#000000" d="M0 0C0-6.1-.5-15 0-17.9"/>
<path transform="matrix(1,0,0,-1,263.7,334.176)" stroke-width=".96" stroke-linecap="butt" stroke-linejoin="round" fill="none" stroke="#000000" d="M0 0C.5-2.9 1.5-7.1 3.7-12.7"/>
</g>
</g>
</g>
</g>
</g>
<g id="layer_1" data-name="">
<g id="layer_2" data-name="">
<g id="layer_3" data-name="">
<g id="layer_4" data-name="">
<g id="layer_5" data-name="">
<path transform="matrix(1,0,0,-1,345.6,201.57599)" stroke-width=".48" stroke-linecap="butt" stroke-linejoin="round" fill="none" stroke="#000000" d="M0 0C1-1.8 1.8-2.6 2.4-2.2"/>
<path transform="matrix(1,0,0,-1,348,203.776)" stroke-width=".48" stroke-linecap="butt" stroke-linejoin="round" fill="none" stroke="#000000" d="M0 0C.6 .4 1 .9 2.9 2.7"/>
<path transform="matrix(1,0,0,-1,350.9,201.07599)" stroke-width=".48" stroke-linecap="butt" stroke-linejoin="round" fill="none" stroke="#000000" d="M0 0C1.9 1.8 1.6 .4 2.9 1.8"/>
<path transform="matrix(1,0,0,-1,353.8,199.276)" stroke-width=".48" stroke-linecap="butt" stroke-linejoin="round" fill="none" stroke="#000000" d="M0 0C1.2 1.5 1.2 2.8 2.1 2.8"/>
<path transform="matrix(1,0,0,-1,355.9,196.47602)" stroke-width=".48" stroke-linecap="butt" stroke-linejoin="round" fill="none" stroke="#000000" d="M0 0C1 0 1.5-.9 1-1.7"/>
<path transform="matrix(1,0,0,-1,356.9,198.176)" stroke-width=".48" stroke-linecap="butt" stroke-linejoin="round" fill="none" stroke="#000000" d="M0 0C-.6-.7-1.6-1.1-1.6-2.4"/>
<path transform="matrix(1,0,0,-1,355.3,200.57599)" stroke-width=".48" stroke-linecap="butt" stroke-linejoin="round" fill="none" stroke="#000000" d="M0 0C0-1.4 0-2.3 0-2.8"/>
<path transform="matrix(1,0,0,-1,355.3,203.376)" stroke-width=".48" stroke-linecap="butt" stroke-linejoin="round" fill="none" stroke="#000000" d="M0 0C0-.4 .6-1.7 1.4-1.2"/>
<path transform="matrix(1,0,0,-1,356.7,204.57599)" stroke-width=".48" stroke-linecap="butt" stroke-linejoin="round" fill="none" stroke="#000000" d="M0 0C.7 .6 1.6 .8 1.9 1.9"/>
<path transform="matrix(1,0,0,-1,358.6,202.676)" stroke-width=".48" stroke-linecap="butt" stroke-linejoin="round" fill="none" stroke="#000000" d="M0 0C.3 1.2-.5 1.5 .5 2.5"/>
<path transform="matrix(1,0,0,-1,359.1,200.176)" stroke-width=".48" stroke-linecap="butt" stroke-linejoin="round" fill="none" stroke="#000000" d="M0 0C1 1 2.7 2.2 3.2 3.3"/>
<path transform="matrix(1,0,0,-1,362.3,196.876)" stroke-width=".48" stroke-linecap="butt" stroke-linejoin="round" fill="none" stroke="#000000" d="M0 0C.5 1.2 1.5 1.6 1.5 .4"/>
<path transform="matrix(1,0,0,-1,363.8,196.47602)" stroke-width=".48" stroke-linecap="butt" stroke-linejoin="round" fill="none" stroke="#000000" d="M0 0C0-1.2-1-2.2 0-2.6"/>
<path transform="matrix(1,0,0,-1,363.8,199.07599)" stroke-width=".48" stroke-linecap="butt" stroke-linejoin="round" fill="none" stroke="#000000" d="M0 0C.9-.5 .5-.1 1-1.9"/>
<path transform="matrix(1,0,0,-1,364.8,200.97602)" stroke-width=".48" stroke-linecap="butt" stroke-linejoin="round" fill="none" stroke="#000000" d="M0 0C.4-1.7 .9-2.9 1.7-3.4"/>
<path transform="matrix(1,0,0,-1,366.5,204.376)" stroke-width=".48" stroke-linecap="butt" stroke-linejoin="round" fill="none" stroke="#000000" d="M0 0C.9-.5 1.5-.8 2 .1"/>
<path transform="matrix(1,0,0,-1,368.5,204.276)" stroke-width=".48" stroke-linecap="butt" stroke-linejoin="round" fill="none" stroke="#000000" d="M0 0C.5 .9 .5 1.3 .5 2.6"/>
<path transform="matrix(1,0,0,-1,369,201.676)" stroke-width=".48" stroke-linecap="butt" stroke-linejoin="round" fill="none" stroke="#000000" d="M0 0C0 1.2 .3 .7 .8 2.1"/>
<path transform="matrix(1,0,0,-1,369.8,199.57599)" stroke-width=".48" stroke-linecap="butt" stroke-linejoin="round" fill="none" stroke="#000000" d="M0 0C.5 1.4-.2 2 .5 2.7"/>
<path transform="matrix(1,0,0,-1,370.3,196.876)" stroke-width=".48" stroke-linecap="butt" stroke-linejoin="round" fill="none" stroke="#000000" d="M0 0C.8 .8 1.8 .4 2.5-.7"/>
<path transform="matrix(1,0,0,-1,372.8,197.57599)" stroke-width=".48" stroke-linecap="butt" stroke-linejoin="round" fill="none" stroke="#000000" d="M0 0C.7-1.2 .5-1.8 2-1.8"/>
<path transform="matrix(1,0,0,-1,374.8,199.376)" stroke-width=".48" stroke-linecap="butt" stroke-linejoin="round" fill="none" stroke="#000000" d="M0 0C1.4 0 .9 .5 2.8-1.9"/>
<path transform="matrix(1,0,0,-1,377.6,201.276)" stroke-width=".48" stroke-linecap="butt" stroke-linejoin="round" fill="none" stroke="#000000" d="M0 0C2-2.4 3.6-5.5 5.1-5.5"/>
<path transform="matrix(1,0,0,-1,382.7,206.776)" stroke-width=".48" stroke-linecap="butt" stroke-linejoin="round" fill="none" stroke="#000000" d="M0 0C1.5 0 1.9 .6 1.5 1.7"/>
<path transform="matrix(1,0,0,-1,384.2,205.07599)" stroke-width=".48" stroke-linecap="butt" stroke-linejoin="round" fill="none" stroke="#000000" d="M0 0C-.5 1.1-1.4 1-2.1 3.8"/>
<path transform="matrix(1,0,0,-1,382.1,201.276)" stroke-width=".48" stroke-linecap="butt" stroke-linejoin="round" fill="none" stroke="#000000" d="M0 0C-.7 2.8-1 1.4-2.1 3.5"/>
<path transform="matrix(1,0,0,-1,380,197.776)" stroke-width=".48" stroke-linecap="butt" stroke-linejoin="round" fill="none" stroke="#000000" d="M0 0C-1.2 2-3.2 2.6-2.3 3.8"/>
<path transform="matrix(1,0,0,-1,377.7,193.97602)" stroke-width=".48" stroke-linecap="butt" stroke-linejoin="round" fill="none" stroke="#000000" d="M0 0C1 1.1 1-.8 2.7-.8"/>
<path transform="matrix(1,0,0,-1,380.4,194.776)" stroke-width=".48" stroke-linecap="butt" stroke-linejoin="round" fill="none" stroke="#000000" d="M0 0C1.7 0 .9-1.4 1.7-1.4"/>
<path transform="matrix(1,0,0,-1,382.1,196.176)" stroke-width=".48" stroke-linecap="butt" stroke-linejoin="round" fill="none" stroke="#000000" d="M0 0C.7 0 1.3 1.1 2.1 0"/>
<path transform="matrix(1,0,0,-1,384.2,196.176)" stroke-width=".48" stroke-linecap="butt" stroke-linejoin="round" fill="none" stroke="#000000" d="M0 0C.8-1.2 1.2-2.4 2.4-2.4"/>
<path transform="matrix(1,0,0,-1,386.6,198.57599)" stroke-width=".48" stroke-linecap="butt" stroke-linejoin="round" fill="none" stroke="#000000" d="M0 0C1.3 0 2 .8 2 1.3"/>
<path transform="matrix(1,0,0,-1,388.6,197.276)" stroke-width=".48" stroke-linecap="butt" stroke-linejoin="round" fill="none" stroke="#000000" d="M0 0C0 .4-.5 .7 0 4.7"/>
<path transform="matrix(1,0,0,-1,388.6,192.57599)" stroke-width=".48" stroke-linecap="butt" stroke-linejoin="round" fill="none" stroke="#000000" d="M0 0C.6 4 1.2 3.4 2.1 4"/>
<path transform="matrix(1,0,0,-1,390.7,188.57599)" stroke-width=".48" stroke-linecap="butt" stroke-linejoin="round" fill="none" stroke="#000000" d="M0 0C.9 .6 .8 1.4 2.5-.2"/>
<path transform="matrix(1,0,0,-1,393.2,188.776)" stroke-width=".48" stroke-linecap="butt" stroke-linejoin="round" fill="none" stroke="#000000" d="M0 0C1.8-1.6 2.5-.2 4.8-.6"/>
<path transform="matrix(1,0,0,-1,398,189.376)" stroke-width=".48" stroke-linecap="butt" stroke-linejoin="round" fill="none" stroke="#000000" d="M0 0C2.2-.5 2.9 .8 4.1-.5"/>
<path transform="matrix(1,0,0,-1,402.1,189.876)" stroke-width=".48" stroke-linecap="butt" stroke-linejoin="round" fill="none" stroke="#000000" d="M0 0C1.2-1.3 1.9-2.3 2.4-1.9"/>
<path transform="matrix(1,0,0,-1,404.5,191.776)" stroke-width=".48" stroke-linecap="butt" stroke-linejoin="round" fill="none" stroke="#000000" d="M0 0C.5 .3 1.1 .4 1.1 .7"/>
<path transform="matrix(1,0,0,-1,405.6,191.07599)" stroke-width=".48" stroke-linecap="butt" stroke-linejoin="round" fill="none" stroke="#000000" d="M0 0C0 .2 .5 1.1 0 1.6"/>
<path transform="matrix(1,0,0,-1,405.6,189.47602)" stroke-width=".48" stroke-linecap="butt" stroke-linejoin="round" fill="none" stroke="#000000" d="M0 0C-.5 .5-1.4 1.5-2.7 1.9"/>
<path transform="matrix(1,0,0,-1,402.9,187.57599)" stroke-width=".48" stroke-linecap="butt" stroke-linejoin="round" fill="none" stroke="#000000" d="M0 0C-1.4 .4-2.6 .4-3 1"/>
<path transform="matrix(1,0,0,-1,399.9,186.57599)" stroke-width=".48" stroke-linecap="butt" stroke-linejoin="round" fill="none" stroke="#000000" d="M0 0C-.4 .5-.3 .9 .7 .9"/>
<path transform="matrix(1,0,0,-1,400.6,185.676)" stroke-width=".48" stroke-linecap="butt" stroke-linejoin="round" fill="none" stroke="#000000" d="M0 0C1 0 3.5-.8 6.1-.8"/>
<path transform="matrix(1,0,0,-1,406.7,186.47602)" stroke-width=".48" stroke-linecap="butt" stroke-linejoin="round" fill="none" stroke="#000000" d="M0 0C2.5 0 4.6 0 4.6 1.3"/>
<path transform="matrix(1,0,0,-1,411.3,185.176)" stroke-width=".48" stroke-linecap="butt" stroke-linejoin="round" fill="none" stroke="#000000" d="M0 0C0 1.4 0 2.5-2.7 4.1"/>
<path transform="matrix(1,0,0,-1,408.6,181.07599)" stroke-width=".48" stroke-linecap="butt" stroke-linejoin="round" fill="none" stroke="#000000" d="M0 0C-2.7 1.7-3.7 2.8-3.7 3.3"/>
<path transform="matrix(1,0,0,-1,362.7,425.176)" stroke-width="0" stroke-linecap="butt" stroke-linejoin="bevel" fill="none" stroke="#2d2d2d" d="M0 0C-3.7 4.9-2.8 6.4-2.8 8.1"/>
<path transform="matrix(1,0,0,-1,359.9,417.076)" stroke-width="0" stroke-linecap="butt" stroke-linejoin="bevel" fill="none" stroke="#2d2d2d" d="M0 0C0 1.6 2.5 6.1 6.3 8.5"/>
<path transform="matrix(1,0,0,-1,366.2,408.576)" stroke-width="0" stroke-linecap="butt" stroke-linejoin="bevel" fill="none" stroke="#2d2d2d" d="M0 0C3.8 2.3 13.5 9.5 19.3 12.1"/>
<path transform="matrix(1,0,0,-1,385.5,396.476)" stroke-width="0" stroke-linecap="butt" stroke-linejoin="bevel" fill="none" stroke="#2d2d2d" d="M0 0C5.9 2.6 40.6 18.6 53.4 21.6"/>
<path transform="matrix(1,0,0,-1,438.9,374.876)" stroke-width="0" stroke-linecap="butt" stroke-linejoin="bevel" fill="none" stroke="#2d2d2d" d="M0 0C12.7 3 23.7 7.4 39.3 9.9"/>
<path transform="matrix(1,0,0,-1,478.2,364.976)" stroke-width="0" stroke-linecap="butt" stroke-linejoin="bevel" fill="none" stroke="#2d2d2d" d="M0 0C15.6 2.5 29.6 4.4 37.2 4.4"/>
<path transform="matrix(1,0,0,-1,515.4,360.576)" stroke-width="0" stroke-linecap="butt" stroke-linejoin="bevel" fill="none" stroke="#2d2d2d" d="M0 0C7.7 0 10-.1 13.1-1.3"/>
<path transform="matrix(1,0,0,-1,528.5,361.876)" stroke-width="0" stroke-linecap="butt" stroke-linejoin="bevel" fill="none" stroke="#2d2d2d" d="M0 0C2.3-1 4.3-2.4 5.2-3.4"/>
<path transform="matrix(1,0,0,-1,533.7,365.276)" stroke-width="0" stroke-linecap="butt" stroke-linejoin="bevel" fill="none" stroke="#2d2d2d" d="M0 0C1.3-3.3 .7-4.2 .7-6.5"/>
<path transform="matrix(1,0,0,-1,534.4,371.776)" stroke-width="0" stroke-linecap="butt" stroke-linejoin="bevel" fill="none" stroke="#2d2d2d" d="M0 0C0-.5 0-.8 0-1.1"/>
<path transform="matrix(1,0,0,-1,474.9,308.176)" stroke-width="0" stroke-linecap="butt" stroke-linejoin="bevel" fill="none" stroke="#2d2d2d" d="M0 0C-1.7-5.2-2.3-14.6 .2-21.6"/>
<path transform="matrix(1,0,0,-1,475.1,329.776)" stroke-width="0" stroke-linecap="butt" stroke-linejoin="bevel" fill="none" stroke="#2d2d2d" d="M0 0C2.5-7.1 4.2-11.2 4.2-5"/>
<path transform="matrix(1,0,0,-1,479.3,334.776)" stroke-width="0" stroke-linecap="butt" stroke-linejoin="bevel" fill="none" stroke="#2d2d2d" d="M0 0C0 6.3 1.3 13.4 0 16.9"/>
<path transform="matrix(1,0,0,-1,479.3,317.876)" stroke-width="0" stroke-linecap="butt" stroke-linejoin="bevel" fill="none" stroke="#2d2d2d" d="M0 0C-1.1 3.9-2.3 8.8-3.1 9.6"/>
<path transform="matrix(1,0,0,-1,476.2,308.276)" stroke-width="0" stroke-linecap="butt" stroke-linejoin="bevel" fill="none" stroke="#2d2d2d" d="M0 0C-.7 .8-.9 1.1-1.3 .1"/>
<path transform="matrix(1,0,0,-1,492.6,299.776)" stroke-width="0" stroke-linecap="butt" stroke-linejoin="bevel" fill="none" stroke="#2d2d2d" d="M0 0C0-11.8 2.3-22.5 0-31"/>
<path transform="matrix(1,0,0,-1,492.6,330.776)" stroke-width="0" stroke-linecap="butt" stroke-linejoin="bevel" fill="none" stroke="#2d2d2d" d="M0 0C-2.3-8.4-3.2-27.3-7.5-27.3"/>
<path transform="matrix(1,0,0,-1,485.1,358.076)" stroke-width="0" stroke-linecap="butt" stroke-linejoin="bevel" fill="none" stroke="#2d2d2d" d="M0 0C-4.3 0-1.7 0-18.5-2.3"/>
<path transform="matrix(1,0,0,-1,466.6,360.376)" stroke-width="0" stroke-linecap="butt" stroke-linejoin="bevel" fill="none" stroke="#2d2d2d" d="M0 0C-16.8-2.3-29.6-6.3-44.5-12.8"/>
<path transform="matrix(1,0,0,-1,422.1,373.176)" stroke-width="0" stroke-linecap="butt" stroke-linejoin="bevel" fill="none" stroke="#2d2d2d" d="M0 0C-15-6.5-20.6-12.5-23.3-10.7"/>
<path transform="matrix(1,0,0,-1,398.8,383.876)" stroke-width="0" stroke-linecap="butt" stroke-linejoin="bevel" fill="none" stroke="#2d2d2d" d="M0 0C-2.8 1.8-9.9 8.2-14.3 13.9"/>
<path transform="matrix(1,0,0,-1,384.5,369.976)" stroke-width="0" stroke-linecap="butt" stroke-linejoin="bevel" fill="none" stroke="#2d2d2d" d="M0 0C-4.5 5.8-3.5 5.1-4.5 5.8"/>
<path transform="matrix(1,0,0,-1,380,364.176)" stroke-width="0" stroke-linecap="butt" stroke-linejoin="bevel" fill="none" stroke="#2d2d2d" d="M0 0C-.9 .6-2.7 1.1-1.6-1.8"/>
<path transform="matrix(1,0,0,-1,378.4,365.976)" stroke-width="0" stroke-linecap="butt" stroke-linejoin="bevel" fill="none" stroke="#2d2d2d" d="M0 0C1.1-2.9 2.3-3.2 6-8.3"/>
<path transform="matrix(1,0,0,-1,384.4,374.276)" stroke-width="0" stroke-linecap="butt" stroke-linejoin="bevel" fill="none" stroke="#2d2d2d" d="M0 0C3.8-5.1 7.1-9.3 7.1-11.6"/>
<path transform="matrix(1,0,0,-1,391.5,385.876)" stroke-width="0" stroke-linecap="butt" stroke-linejoin="bevel" fill="none" stroke="#2d2d2d" d="M0 0C0-2.3-.7-3.8-2.6-3.8"/>
<path transform="matrix(1,0,0,-1,388.9,389.676)" stroke-width="0" stroke-linecap="butt" stroke-linejoin="bevel" fill="none" stroke="#2d2d2d" d="M0 0C-1.9 0-2.6 2-5.5 5.5"/>
<path transform="matrix(1,0,0,-1,383.4,384.176)" stroke-width="0" stroke-linecap="butt" stroke-linejoin="bevel" fill="none" stroke="#2d2d2d" d="M0 0C-2.9 3.6-16 14.8-20.6 23.8"/>
<path transform="matrix(1,0,0,-1,362.8,360.376)" stroke-width="0" stroke-linecap="butt" stroke-linejoin="bevel" fill="none" stroke="#2d2d2d" d="M0 0C-4.6 8.9-8.6 15.5-11.2 21.8"/>
<path transform="matrix(1,0,0,-1,351.6,338.576)" stroke-width="0" stroke-linecap="butt" stroke-linejoin="bevel" fill="none" stroke="#2d2d2d" d="M0 0C-2.6 6.4-4.3 10.7-5.7 8"/>
<path transform="matrix(1,0,0,-1,345.9,330.576)" stroke-width="0" stroke-linecap="butt" stroke-linejoin="bevel" fill="none" stroke="#2d2d2d" d="M0 0C-1.5-2.8 4.8-20.7 6.2-23.1"/>
<path transform="matrix(1,0,0,-1,352.1,353.676)" stroke-width="0" stroke-linecap="butt" stroke-linejoin="bevel" fill="none" stroke="#2d2d2d" d="M0 0C1.5-2.3 7.6-15.6 12.9-22.6"/>
<path transform="matrix(1,0,0,-1,365,376.276)" stroke-width="0" stroke-linecap="butt" stroke-linejoin="bevel" fill="none" stroke="#2d2d2d" d="M0 0C5.3-7.1 13.4-15 13.4-17.5"/>
<path transform="matrix(1,0,0,-1,378.4,393.776)" stroke-width="0" stroke-linecap="butt" stroke-linejoin="bevel" fill="none" stroke="#2d2d2d" d="M0 0C.4-1.8 .2-2.6-.1-2.8"/>
<path transform="matrix(1,0,0,-1,378.3,396.576)" stroke-width="0" stroke-linecap="butt" stroke-linejoin="bevel" fill="none" stroke="#2d2d2d" d="M0 0C-.4-.3-1.3-1.2-2.4-.6"/>
<path transform="matrix(1,0,0,-1,375.9,397.176)" stroke-width="0" stroke-linecap="butt" stroke-linejoin="bevel" fill="none" stroke="#2d2d2d" d="M0 0C-1.2 .6 1.6-.6-6.2 3.7"/>
<path transform="matrix(1,0,0,-1,369.7,393.476)" stroke-width="0" stroke-linecap="butt" stroke-linejoin="bevel" fill="none" stroke="#2d2d2d" d="M0 0C-7.8 4.3-20.3 15.6-27.1 23.9"/>
<path transform="matrix(1,0,0,-1,342.6,369.576)" stroke-width="0" stroke-linecap="butt" stroke-linejoin="bevel" fill="none" stroke="#2d2d2d" d="M0 0C-6.8 8.3-10.5 18.6-11.6 16.5"/>
<path transform="matrix(1,0,0,-1,331,353.076)" stroke-width="0" stroke-linecap="butt" stroke-linejoin="bevel" fill="none" stroke="#2d2d2d" d="M0 0C-1.1-2 1.5-7.6 3.3-11.3"/>
<path transform="matrix(1,0,0,-1,334.3,364.376)" stroke-width="0" stroke-linecap="butt" stroke-linejoin="bevel" fill="none" stroke="#2d2d2d" d="M0 0C1.8-3.8 7.4-10.9 10-15.4"/>
<path transform="matrix(1,0,0,-1,344.3,379.776)" stroke-width="0" stroke-linecap="butt" stroke-linejoin="bevel" fill="none" stroke="#2d2d2d" d="M0 0C2.6-4.6 5.1-7 2.6-7"/>
<path transform="matrix(1,0,0,-1,346.9,386.776)" stroke-width="0" stroke-linecap="butt" stroke-linejoin="bevel" fill="none" stroke="#2d2d2d" d="M0 0C-2.5 0-4.3 1-7.7 3.1"/>
<path transform="matrix(1,0,0,-1,339.2,383.676)" stroke-width="0" stroke-linecap="butt" stroke-linejoin="bevel" fill="none" stroke="#2d2d2d" d="M0 0C-3.3 2.1-10.9 8.6-17.7 14.8"/>
<path transform="matrix(1,0,0,-1,321.5,368.876)" stroke-width="0" stroke-linecap="butt" stroke-linejoin="bevel" fill="none" stroke="#2d2d2d" d="M0 0C-6.7 6.2-16 16.7-20.6 26.5"/>
<path transform="matrix(1,0,0,-1,300.9,342.376)" stroke-width="0" stroke-linecap="butt" stroke-linejoin="bevel" fill="none" stroke="#2d2d2d" d="M0 0C-4.5 9.8-6.7 11.6-6.7 19.8"/>
<path transform="matrix(1,0,0,-1,294.2,322.576)" stroke-width="0" stroke-linecap="butt" stroke-linejoin="bevel" fill="none" stroke="#2d2d2d" d="M0 0C0 8.2-.8 13.3-2.1 11.4"/>
<path transform="matrix(1,0,0,-1,292.1,311.176)" stroke-width="0" stroke-linecap="butt" stroke-linejoin="bevel" fill="none" stroke="#2d2d2d" d="M0 0C-1.3-2-1.3-12.4-1.3-16.4"/>
<path transform="matrix(1,0,0,-1,290.8,327.576)" stroke-width="0" stroke-linecap="butt" stroke-linejoin="bevel" fill="none" stroke="#2d2d2d" d="M0 0C0-4.1 1.6-10.5 2.5-12"/>
<path transform="matrix(1,0,0,-1,293.3,339.576)" stroke-width="0" stroke-linecap="butt" stroke-linejoin="bevel" fill="none" stroke="#2d2d2d" d="M0 0C.8-1.5 4.7-10.6 7.9-15.5"/>
<path transform="matrix(1,0,0,-1,301.2,355.076)" stroke-width="0" stroke-linecap="butt" stroke-linejoin="bevel" fill="none" stroke="#2d2d2d" d="M0 0C3.2-4.8 15.1-23.3 17.7-25.1"/>
<path transform="matrix(1,0,0,-1,318.9,380.176)" stroke-width="0" stroke-linecap="butt" stroke-linejoin="bevel" fill="none" stroke="#2d2d2d" d="M0 0C2.5-1.8 6.6-8.2-.8-3.4"/>
<path transform="matrix(1,0,0,-1,318.1,383.576)" stroke-width="0" stroke-linecap="butt" stroke-linejoin="bevel" fill="none" stroke="#2d2d2d" d="M0 0C-7.4 4.7-14.9 5.7-23.3 17.6"/>
<path transform="matrix(1,0,0,-1,294.8,365.976)" stroke-width="0" stroke-linecap="butt" stroke-linejoin="bevel" fill="none" stroke="#2d2d2d" d="M0 0C-8.3 11.8-13.5 17.7-15 30.3"/>
<path transform="matrix(1,0,0,-1,279.8,335.676)" stroke-width="0" stroke-linecap="butt" stroke-linejoin="bevel" fill="none" stroke="#2d2d2d" d="M0 0C-1.6 12.7-3.5 14.9-1.6 29.1"/>
<path transform="matrix(1,0,0,-1,278.2,306.576)" stroke-width="0" stroke-linecap="butt" stroke-linejoin="bevel" fill="none" stroke="#2d2d2d" d="M0 0C1.8 14.2 5.3 17.4 5.3 21.1"/>
<path transform="matrix(1,0,0,-1,283.5,285.476)" stroke-width="0" stroke-linecap="butt" stroke-linejoin="bevel" fill="none" stroke="#2d2d2d" d="M0 0C0 3.6-.9 1.9-1.4 1.3"/>
<path transform="matrix(1,0,0,-1,282.1,284.176)" stroke-width="0" stroke-linecap="butt" stroke-linejoin="bevel" fill="none" stroke="#2d2d2d" d="M0 0C-.5-.7-.1 2-3.9-7.2"/>
<path transform="matrix(1,0,0,-1,278.2,291.376)" stroke-width="0" stroke-linecap="butt" stroke-linejoin="bevel" fill="none" stroke="#2d2d2d" d="M0 0C-3.9-9.2-7.1-15.6-7.1-30.4"/>
<path transform="matrix(1,0,0,-1,271.1,321.776)" stroke-width="0" stroke-linecap="butt" stroke-linejoin="bevel" fill="none" stroke="#2d2d2d" d="M0 0C0-14.8 1.2-18.3 4.6-27.6"/>
<path transform="matrix(1,0,0,-1,275.7,349.376)" stroke-width="0" stroke-linecap="butt" stroke-linejoin="bevel" fill="none" stroke="#2d2d2d" d="M0 0C3.4-9.3 8.9-20.1 15.7-28"/>
<path transform="matrix(1,0,0,-1,291.4,377.376)" stroke-width="0" stroke-linecap="butt" stroke-linejoin="bevel" fill="none" stroke="#2d2d2d" d="M0 0C6.8-8 13.2-13.5 23.9-20.5"/>
<path transform="matrix(1,0,0,-1,315.3,397.876)" stroke-width="0" stroke-linecap="butt" stroke-linejoin="bevel" fill="none" stroke="#2d2d2d" d="M0 0C32.6-17.8 42.8-19.2 44.6-19.2"/>
<path transform="matrix(1,0,0,-1,492.6,299.776)" stroke-width="0" stroke-linecap="butt" stroke-linejoin="bevel" fill="none" stroke="#2d2d2d" d="M0 0C0 2.7 1.5 6.7 2.3 2.1"/>
<path transform="matrix(1,0,0,-1,494.9,297.676)" stroke-width="0" stroke-linecap="butt" stroke-linejoin="bevel" fill="none" stroke="#2d2d2d" d="M0 0C.8-4.6 2.1-14.1 2.1-26.4"/>
<path transform="matrix(1,0,0,-1,497,324.076)" stroke-width="0" stroke-linecap="butt" stroke-linejoin="bevel" fill="none" stroke="#2d2d2d" d="M0 0C0-12.3-3.7-28.9-1.6-31.1"/>
<path transform="matrix(1,0,0,-1,495.4,355.176)" stroke-width="0" stroke-linecap="butt" stroke-linejoin="bevel" fill="none" stroke="#2d2d2d" d="M0 0C2.2-2.1 2.3-2.2 5.8-1.1"/>
<path transform="matrix(1,0,0,-1,501.2,356.276)" stroke-width="0" stroke-linecap="butt" stroke-linejoin="bevel" fill="none" stroke="#2d2d2d" d="M0 0C3.6 1 5.5 6.6 7.5 12"/>
<path transform="matrix(1,0,0,-1,508.7,344.276)" stroke-width="0" stroke-linecap="butt" stroke-linejoin="bevel" fill="none" stroke="#2d2d2d" d="M0 0C2 5.4 3.3 12.7 4.7 17.5"/>
<path transform="matrix(1,0,0,-1,513.4,326.776)" stroke-width="0" stroke-linecap="butt" stroke-linejoin="bevel" fill="none" stroke="#2d2d2d" d="M0 0C1.4 4.8 3.8 .5 5.3 4.8"/>
<path transform="matrix(1,0,0,-1,518.7,321.976)" stroke-width="0" stroke-linecap="butt" stroke-linejoin="bevel" fill="none" stroke="#2d2d2d" d="M0 0C2.3 7.8 .8 6.6 2.3 17.5"/>
<path transform="matrix(1,0,0,-1,521,304.476)" stroke-width="0" stroke-linecap="butt" stroke-linejoin="bevel" fill="none" stroke="#2d2d2d" d="M0 0C1.6 11 3.2 16.6 1.6 22.2"/>
<path transform="matrix(1,0,0,-1,522.6,282.276)" stroke-width="0" stroke-linecap="butt" stroke-linejoin="bevel" fill="none" stroke="#2d2d2d" d="M0 0C-1.6 5.6-4 10.9-1.6 9.2"/>
<path transform="matrix(1,0,0,-1,521,273.076)" stroke-width="0" stroke-linecap="butt" stroke-linejoin="bevel" fill="none" stroke="#2d2d2d" d="M0 0C2.5-1.7 5.5-7.2 5.5-9.6"/>
<path transform="matrix(1,0,0,-1,526.5,282.676)" stroke-width="0" stroke-linecap="butt" stroke-linejoin="bevel" fill="none" stroke="#2d2d2d" d="M0 0C0-2.5 0-4.3 0-17.5"/>
<path transform="matrix(1,0,0,-1,526.5,300.176)" stroke-width="0" stroke-linecap="butt" stroke-linejoin="bevel" fill="none" stroke="#2d2d2d" d="M0 0C0-13.1 .4-20.7 2.2-20.7"/>
<path transform="matrix(1,0,0,-1,528.7,320.876)" stroke-width="0" stroke-linecap="butt" stroke-linejoin="bevel" fill="none" stroke="#2d2d2d" d="M0 0C1.8 0 3.4 3.6 3.4 6.4"/>
<path transform="matrix(1,0,0,-1,532.1,314.476)" stroke-width="0" stroke-linecap="butt" stroke-linejoin="bevel" fill="none" stroke="#2d2d2d" d="M0 0C1.5 5.7 2.3 7 3.3 16.5"/>
<path transform="matrix(1,0,0,-1,535.4,297.976)" stroke-width="0" stroke-linecap="butt" stroke-linejoin="bevel" fill="none" stroke="#2d2d2d" d="M0 0C.9 9.5 2.7 17.5 .9 27"/>
<path transform="matrix(1,0,0,-1,536.3,270.976)" stroke-width="0" stroke-linecap="butt" stroke-linejoin="bevel" fill="none" stroke="#2d2d2d" d="M0 0C-1.8 9.5-5.5 18.1-5.5 19.6"/>
<path transform="matrix(1,0,0,-1,530.8,251.376)" stroke-width="0" stroke-linecap="butt" stroke-linejoin="bevel" fill="none" stroke="#2d2d2d" d="M0 0C0 1.6-.3 2.5 2.7-1.5"/>
<path transform="matrix(1,0,0,-1,533.5,252.876)" stroke-width="0" stroke-linecap="butt" stroke-linejoin="bevel" fill="none" stroke="#2d2d2d" d="M0 0C3-4.1 6.2-10.3 7.7-17"/>
<path transform="matrix(1,0,0,-1,541.2,269.876)" stroke-width="0" stroke-linecap="butt" stroke-linejoin="bevel" fill="none" stroke="#2d2d2d" d="M0 0C1.4-6.6 1.4-11.5 1.4-26.5"/>
<path transform="matrix(1,0,0,-1,542.6,296.376)" stroke-width="0" stroke-linecap="butt" stroke-linejoin="bevel" fill="none" stroke="#2d2d2d" d="M0 0C0-15-3.5-20.5-1.5-21.8"/>
<path transform="matrix(1,0,0,-1,541.1,318.176)" stroke-width="0" stroke-linecap="butt" stroke-linejoin="bevel" fill="none" stroke="#2d2d2d" d="M0 0C1.9-1.3 2.4 .7 4.1 3.4"/>
<path transform="matrix(1,0,0,-1,545.2,314.776)" stroke-width="0" stroke-linecap="butt" stroke-linejoin="bevel" fill="none" stroke="#2d2d2d" d="M0 0C1.7 2.7 3.7 9.3 5.9 19.9"/>
<path transform="matrix(1,0,0,-1,551.1,294.876)" stroke-width="0" stroke-linecap="butt" stroke-linejoin="bevel" fill="none" stroke="#2d2d2d" d="M0 0C2.2 10.7 .4 17 .4 26.2"/>
<path transform="matrix(1,0,0,-1,551.5,268.676)" stroke-width="0" stroke-linecap="butt" stroke-linejoin="bevel" fill="none" stroke="#2d2d2d" d="M0 0C0 9.3-3 14.5-5 18.5"/>
<path transform="matrix(1,0,0,-1,546.5,250.176)" stroke-width="0" stroke-linecap="butt" stroke-linejoin="bevel" fill="none" stroke="#2d2d2d" d="M0 0C-1.9 4-4.4 9.5-7.4 13.9"/>
<path transform="matrix(1,0,0,-1,539.1,236.276)" stroke-width="0" stroke-linecap="butt" stroke-linejoin="bevel" fill="none" stroke="#2d2d2d" d="M0 0C-3 4.5-14.1 12.6-11.8 13.7"/>
<path transform="matrix(1,0,0,-1,527.3,222.57599)" stroke-width="0" stroke-linecap="butt" stroke-linejoin="bevel" fill="none" stroke="#2d2d2d" d="M0 0C2.2 1.2 6.3-2.6 7.7-2.6"/>
<path transform="matrix(1,0,0,-1,535,225.176)" stroke-width="0" stroke-linecap="butt" stroke-linejoin="bevel" fill="none" stroke="#2d2d2d" d="M0 0C6-5.5 9.6-6.3 15.5-16"/>
<path transform="matrix(1,0,0,-1,550.5,241.176)" stroke-width="0" stroke-linecap="butt" stroke-linejoin="bevel" fill="none" stroke="#2d2d2d" d="M0 0C5.8-9.8 8.9-14.8 10.6-22.3"/>
<path transform="matrix(1,0,0,-1,561.1,263.476)" stroke-width="0" stroke-linecap="butt" stroke-linejoin="bevel" fill="none" stroke="#2d2d2d" d="M0 0C1.7-7.6 3.6-17.3 3.6-23.8"/>
<path transform="matrix(1,0,0,-1,564.7,287.276)" stroke-width="0" stroke-linecap="butt" stroke-linejoin="bevel" fill="none" stroke="#2d2d2d" d="M0 0C0-6.5 .1-12.3-2.9-21.6"/>
<path transform="matrix(1,0,0,-1,561.8,308.876)" stroke-width="0" stroke-linecap="butt" stroke-linejoin="bevel" fill="none" stroke="#2d2d2d" d="M0 0C-2.9-9.3-4.5-14-13-29.5"/>
<path transform="matrix(1,0,0,-1,548.8,338.376)" stroke-width="0" stroke-linecap="butt" stroke-linejoin="bevel" fill="none" stroke="#2d2d2d" d="M0 0C-8.4-15.5-11.8-23.3-15.1-26.9"/>
<path transform="matrix(1,0,0,-1,606.7,463.276)" d="M0 0C5 5.6 9.8 11.6 14.4 17.9 19 24.2 23.4 30.8 27.6 37.7 31.7 44.6 35.6 51.8 39.1 59.2 42.7 66.7 45.9 74.4 48.8 82.4 51.7 90.3 54.2 98.5 56.3 106.9 58.4 115.2 60.1 123.7 61.3 132.4 63.8 149.7 64.6 167.3 63.5 185 62.4 202.6 59.5 220 54.8 236.9 52.5 245.3 49.8 253.5 46.7 261.6 43.6 269.6 40.1 277.4 36.2 285 32.4 292.5 28.2 299.8 23.8 306.7 19.3 313.7 14.6 320.3 9.6 326.7 4.7 333-.5 339-5.9 344.7-11.2 350.3-16.8 355.7-22.4 360.7-28.1 365.6-34 370.5-40.3 375.1-46.6 379.7-53.2 384.1-60.1 388.2-67 392.4-74.2 396.2-81.6 399.8-89.1 403.4-96.8 406.6-104.8 409.5-112.7 412.3-120.9 414.8-129.3 416.9-137.6 419-146.1 420.7-154.8 422-172.1 424.5-189.7 425.2-207.4 424.1-225 423-242.4 420.1-259.3 415.5-267.7 413.2-276 410.4-284 407.3-292 404.2-299.8 400.7-307.4 396.9-314.9 393-322.2 388.9-329.1 384.4-336.1 380-342.8 375.2-349.1 370.3-355.4 365.3-361.4 360.1-367.1 354.8-372.8 349.4-378.1 343.9-383.1 338.2-388 332.6-392.9 326.6-397.5 320.3-402.1 314.1-406.5 307.5-410.6 300.6-414.8 293.7-418.6 286.5-422.2 279-425.8 271.5-429 263.8-431.9 255.9-434.7 247.9-437.2 239.7-439.3 231.4-441.4 223-443.1 214.5-444.4 205.9-446.9 188.5-447.6 170.9-446.5 153.3-445.4 135.6-442.5 118.2-437.9 101.4-435.6 92.9-432.8 84.7-429.7 76.7-426.6 68.6-423.1 60.8-419.3 53.3-415.4 45.7-411.3 38.5-406.8 31.5-402.4 24.5-397.6 17.9-392.7 11.6-387.7 5.2-382.5-.8-377.2-6.4-371.8-12.1-366.3-17.4-360.6-22.4-355-27.4-349-32.2-342.7-36.8-336.5-41.4-329.9-45.8-323-50-316.1-54.1-308.9-58-301.4-61.6-293.9-65.1-286.2-68.3-278.3-71.2-270.3-74.1-262.1-76.6-253.8-78.7-245.4-80.8-236.9-82.5-228.3-83.7-211-86.3-193.3-87-175.7-85.9-158-84.8-140.6-81.9-123.8-77.2-115.3-74.9-107.1-72.2-99.1-69.1-91-66-83.2-62.5-75.7-58.6-68.1-54.8-60.9-50.6-53.9-46.2-47-41.7-40.3-37-34-32-27.6-27.1-21.6-21.9-16-16.5-10.3-11.2-5-5.6 0 0M-338.8 299.2C-335 303.5-330.9 307.7-326.5 311.9-322.2 316-317.5 320-312.7 323.8-307.8 327.6-302.7 331.2-297.3 334.7-292 338.1-286.4 341.3-280.6 344.2-274.8 347.2-268.8 349.9-262.6 352.3-256.4 354.7-250.1 356.8-243.6 358.5-230.7 362.1-217.3 364.4-203.7 365.2-190.1 366-176.6 365.5-163.3 363.5-156.6 362.6-150.1 361.3-143.7 359.7-137.2 358-131 356.1-124.8 353.9-118.7 351.7-112.8 349.2-107 346.5-101.3 343.7-95.8 340.8-90.5 337.6-85.2 334.4-80.1 331-75.3 327.5-70.4 323.9-65.8 320.2-61.5 316.4-57.2 312.6-52.9 308.5-48.8 304.1-44.7 299.7-40.7 295.1-36.9 290.3-33.1 285.4-29.4 280.3-26 274.9-22.6 269.6-19.4 264-16.4 258.2-13.5 252.4-10.8 246.4-8.4 240.2-6 234-3.9 227.7-2.1 221.2 1.5 208.3 3.7 194.9 4.6 181.3 5.4 167.7 4.8 154.2 2.9 140.9 1.9 134.2 .6 127.7-1 121.3-2.6 114.8-4.5 108.5-6.7 102.4-8.9 96.3-11.4 90.4-14.2 84.6-16.9 78.9-19.9 73.4-23.1 68.1-26.2 62.8-29.6 57.7-33.2 52.8-36.7 48-40.4 43.4-44.3 39.1-48.1 34.7-52.2 30.5-56.5 26.4-60.9 22.3-65.5 18.3-70.4 14.5-75.2 10.6-80.4 7-85.7 3.6-91.1 .2-96.7-3-102.5-6-108.3-8.9-114.3-11.6-120.4-14-126.6-16.4-132.9-18.5-139.4-20.3-152.4-23.9-165.8-26.1-179.3-27-192.9-27.8-206.5-27.2-219.8-25.3-226.4-24.3-233-23-239.4-21.4-245.8-19.8-252.1-17.9-258.2-15.7-264.3-13.5-270.3-11-276-8.2-281.8-5.5-287.3-2.5-292.6 .7-297.9 3.8-303 7.2-307.8 10.8-312.6 14.3-317.2 18-321.6 21.9-325.9 25.7-330.1 29.8-334.3 34.1-338.4 38.5-342.4 43.1-346.2 48-350 52.8-353.6 58-357.1 63.3-360.5 68.7-363.7 74.3-366.6 80.1-369.6 85.9-372.3 91.9-374.7 98-377.1 104.2-379.2 110.5-380.9 117-384.5 130-386.8 143.4-387.6 156.9-388.4 170.5-387.9 184.1-385.9 197.4-385 204-383.7 210.6-382.1 217-380.4 223.4-378.5 229.7-376.3 235.8-374.1 241.9-371.6 247.9-368.9 253.6-366.2 259.4-363.2 264.9-360 270.2-356.8 275.5-353.4 280.6-349.9 285.4-346.3 290.2-342.6 294.8-338.8 299.2" fill="#2d2d2d" fill-rule="evenodd"/>
<path transform="matrix(1,0,0,-1,527.3,222.57599)" d="M0 0C-.4-.2-.4-.5-.2-1 0-1.5 .5-2.1 1.1-2.8 2.4-4.2 4.3-6 6.2-7.8 8.5-9.9 10.7-12 11.8-13.7 13.4-16 14.8-18.6 16.1-21.2 17.3-23.4 18.3-25.7 19.2-27.6 21.2-31.6 24.2-36.8 24.2-46.1 24.2-49.5 24.4-52.6 24.6-55.6 25-60.6 25.2-65.6 23.8-72.3 21.6-82.9 19.6-89.5 17.9-92.2 17-93.7 16.4-94.9 15.8-95.6 15.2-96.1 14.6-96.2 13.8-95.6 11.8-94.3 15.3-88.8 15.3-73.8 15.3-61 15.3-55.5 14.4-50.1 14.3-49.1 14.1-48.2 13.9-47.3 12.4-40.6 9.2-34.4 6.2-30.3 4.7-28.3 4-27.5 3.7-27.4 3.6-27.4 3.6-27.4 3.5-27.5 3.5-27.6 3.5-27.7 3.5-27.8 3.5-28 3.5-28.4 3.5-28.8 3.5-30.3 7.1-38.6 8.9-48 9-48.1 9-48.3 9-48.4 10.4-55.4 9.7-61.6 8.9-68.2 8.6-70.5 8.3-72.9 8.1-75.4 7.4-81.6 6.9-84.3 6.1-87 5.8-88.5 5.3-89.9 4.8-91.9 4.8-93.5 4.3-95.4 3.5-96.7 2.9-97.7 2.2-98.3 1.4-98.3 .6-98.3 .1-96.9-.2-94.3-.7-90.8-.8-85.1-.8-77.6V-60.1C-.8-58.7-1.8-56.2-3.1-54.1-4.1-52.6-5.2-51.2-6.3-50.5-6.6-50.3-6.8-50.2-6.9-50.2-7.1-50.2-7.2-50.2-7.3-50.4-7.4-50.7-7.3-51.3-7-52.2-6.6-53.9-5.6-56.5-4.9-59.2-4.8-59.3-4.7-59.5-4.7-59.7-3.6-63.7-4-67.6-5-73.4-5.3-75.9-5.8-78.6-6.3-81.9-6.8-85.6-7-87.9-7-89.6-7.1-90.8-7.1-91.8-7.2-92.7-7.3-94.4-7.6-96-8.6-99.4-9.3-101.4-10.3-101.5-11.2-101.6-12.2-101.6-13.2-101.7-13.9-104.2-14.7-106.9-15.5-110.4-16.3-113.9-17-116.6-17.8-119.3-18.6-121.7L-18.9-122.5C-20.8-127.6-22.7-132.8-26.1-133.7-28.7-134.5-29.4-134.7-30.5-133.9-30.9-133.6-31.3-133.1-31.9-132.6-32.5-132-32.6-130.3-32.5-127.9-32.4-126.1-32.2-123.9-32-121.4-31.6-118.3-31.2-114.7-30.8-111.1-30.5-107.8-30.3-104.5-30.3-101.5-30.3-89.2-31.6-79.7-32.4-75.1-32.6-74.1-32.8-73.5-33-73.2-33.1-73.1-33.2-73-33.3-73-33.5-73-33.6-73-33.7-73.2-34.1-73.6-34.5-74.8-34.6-76-34.7-76.4-34.7-76.8-34.7-77.2-34.7-82.6-34.2-87.7-33.9-92.5-33.6-98.3-33.5-103.6-34.7-108.2-35.4-110.9-36-114.8-36.7-118.8L-36.9-120C-38.1-127.7-39.4-135.5-42.2-135.5-43.4-135.5-44-135.5-44.7-135.6-46.5-135.7-48.3-136.1-60.7-137.8-66-138.5-70.9-139.4-75.6-140.5-85.8-142.9-95-146.2-105.2-150.6-120.2-157.1-125.8-163.1-128.5-161.3-130.5-160-134.9-156.2-138.8-152.1-140.2-150.5-141.6-148.9-142.8-147.4-146.3-142.9-146.5-142.3-146.8-142-146.9-141.9-147.1-141.8-147.3-141.6-147.5-141.5-147.9-141.3-148.2-141.2-148.6-141.1-149-141.1-149.1-141.4-149.3-141.7-149.3-142.3-148.9-143.4-148.5-144.4-148.1-145.1-147.5-145.9-146.6-147.1-145.2-148.4-142.9-151.7-139.1-156.8-135.8-161-135.8-163.3-135.8-165.6-136.5-167.1-138.4-167.1-140.3-167.1-141-165.1-143.9-161.6-145.7-159.4-151.2-154.4-156.3-148.8-159.6-145.2-162.7-141.4-164.5-137.8-166.8-133.2-169-129.3-171-125.6-172.8-122.2-174.4-119.1-175.7-116-176.2-114.7-176.7-113.5-177.1-112.5-178-110.3-178.8-108.7-179.5-107.8-179.9-107.4-180.2-107.2-180.5-107.2-180.8-107.2-181.1-107.5-181.4-108-182.2-109.4-180.9-114.9-179.2-120.1-177.7-125.1-175.9-129.9-175.2-131.1-174.2-132.6-171.2-139-167.7-145.1-167.1-146.3-166.4-147.5-165.7-148.6-164.6-150.5-163.4-152.3-162.3-153.7-161-155.4-159.6-157.1-158.2-158.8-153.6-164.2-148.9-169.3-148.9-171.2-148.5-173-148.7-173.8-149-174-149.2-174.1-149.5-174.4-149.8-174.6-150.3-174.8-150.8-174.9-151.4-174.6-151.7-174.4-151.8-174.4-151.8-174.4-151.8-174.3-151.8-174.3-152.3-174-152.9-173.6-154.3-172.8-157.6-170.9-160.8-169.2-164.7-166.3-168.7-162.9-171.3-160.7-173.9-158.4-176.4-156-179.6-152.9-182.5-149.8-184.7-147-187.8-143.2-190.3-139-192.1-135.8-193.2-133.8-194.1-132.2-194.8-131.2-195.2-130.8-195.5-130.4-195.7-130.3-195.8-130.2-195.9-130.2-196-130.2-196.1-130.3-196.2-130.3-196.3-130.5-196.5-130.9-196.6-131.4-196.6-132-196.5-133.7-195.5-136.3-194.5-138.7-194-139.8-193.5-140.9-193-141.8-192-144-189.8-147.1-187.6-150.3-185.8-152.7-184.1-155.2-183-157.2-181.7-159.5-180.4-161.2-179.8-162.4-179.5-163-179.3-163.5-179.4-163.8-179.5-164.1-179.8-164.2-180.4-164.2-181.3-164.2-182.2-164.1-183.1-163.8-184.5-163.3-186-162.4-188.1-161.1-189.4-160.3-191.3-158.8-193.6-157-196.5-154.6-199.9-151.6-203.3-148.5-204.1-147.8-205-147-205.8-146.3-209.9-142.4-215.1-136.9-219.5-131-222.2-127.3-224.6-123.5-226.4-119.8-229.1-113.9-231-110.9-232.1-107.6-232.8-105.5-233.1-103.2-233.1-100-233.1-95.8-233.4-92.4-233.7-90.3-233.9-89.4-234.1-88.7-234.4-88.4-234.5-88.2-234.6-88.2-234.8-88.2-234.9-88.3-235.1-88.4-235.2-88.6-236-89.8-236.3-93.7-236.4-97.6-236.5-100.5-236.5-103.3-236.5-105-236.5-106.6-236.3-108.5-235.9-110.4-235.4-113.3-234.6-116.1-234-117-233.5-118-231.6-122.3-229.5-126.5-228.4-128.7-227.2-130.8-226.1-132.5-224.7-134.7-221.4-139.8-218-144.8-216.3-147.3-214.6-149.7-213.1-151.8-211-154.8-209.3-157-208.4-157.6-207.8-158.1-207-158.8-206.4-159.6-205.5-160.8-204.8-162-205.1-162.5-205.2-162.8-205.5-162.8-206.2-162.6-206.9-162.4-207.8-161.9-209.2-161-211.1-159.8-213-158.8-215-157.8-220.5-155-226.3-152.2-232.5-143.4-233.8-141.5-235.1-139.8-236.2-138.1-240.1-132.7-243.1-128.3-245.1-123.2-246.2-120.2-247.1-117-247.5-113.1-248.3-107.2-249.1-103.6-249.5-100-250-95.8-250.1-91.6-249.1-84-248.4-78.9-247.6-75.2-246.7-72.4-245.2-67.6-243.9-65.4-243.8-63.2-243.8-63.1-243.8-63-243.8-62.9-243.8-62.6-243.8-62.3-243.8-62.1-243.8-61.1-244-60.7-244.2-60.7-244.4-60.6-244.7-60.9-244.9-61.2-245-61.4-245.1-61.5-245.2-61.6-245.3-61.8-245.4-61.8-245.4-61.7-245.6-61.7-245.8-61.6-246.6-63.2-247.2-64.3-247.9-66-249.1-68.8-250.2-71.4-251.2-73.8-252.2-76.1-253.3-79.1-254.3-82.2-255-85.8-255.7-89.5-256.2-93.8-256.2-99.2-256.2-109.1-255.7-113.9-254.3-118.8-253.6-121.3-252.7-123.7-251.6-126.8-250.6-129.6-249.4-132.6-248-135.5-244.8-142.4-240.7-149.3-235.9-154.8-232.3-159-228.9-162.5-224.9-165.8-221.2-168.9-217.1-172-212-175.3-208.5-177.2-205.3-179-202.3-180.5-191.5-186.1-183.9-189.4-178.5-191.5-171.4-194.2-168.3-194.5-167.4-194.5-167.4-193.2-165.6-189.8-162.8-187.3-162.3-186.9-161.7-186.4-161.1-186-159-184.7-154.9-181.8-150.8-179.1-147.6-177-144.3-175-141.8-173.9-138.5-172.5-126.3-166.9-114-161.7-104.1-157.5-94.1-153.6-88.4-152.3-84.3-151.3-80.4-150.2-76.5-149.1-68.1-146.7-59.7-144.1-49.1-142.4-33.5-139.9-19.5-138-11.9-138-5.2-138-2.6-138.1 0-138.9 .4-139 .8-139.2 1.2-139.3 3.5-140.3 5.5-141.7 6.4-142.7 9.7-139.1 13.1-131.3 21.5-115.8 23.9-111.5 25.7-108.1 27.1-105.1 29.6-100.1 31.1-96.6 32.4-92.9 33.1-90.8 33.8-88.7 34.5-86.3 35-84.8 35.4-83.4 35.8-82 37.3-76 37.4-71.5 37.4-66.8 37.4-66.1 37.4-65.4 37.4-64.7 37.4-60.4 36.6-54.8 35.5-49.2 35.3-48 35-46.7 34.8-45.4 34.5-43.9 34.1-42.4 33.8-40.9 33-37.1 31.7-34 30-30.5 28.3-27.1 26-23.5 23.2-18.6 19.4-12.4 16.5-9.8 13.4-7.3 11.6-5.9 9.8-4.6 7.7-2.6 7.3-2.6 6.7-2.3 6-1.9 5.5-1.6 4.9-1.2 4.2-.9 2.7-.1 1.1 .6 0 0" fill-rule="evenodd"/>
<path transform="matrix(1,0,0,-1,475.1,329.776)" d="M0 0C.7-1.9 1.3-3.6 1.8-4.9 2.5-6.7 3.1-7.9 3.5-8 3.6-8.1 3.7-8 3.8-7.9 3.9-7.8 4-7.7 4-7.4 4.1-6.9 4.2-6.1 4.2-5 4.2-3.3 4.3-1.5 4.4 .3 4.7 4.9 5.1 9.4 4.2 11.9 4 12.4 3.9 13 3.7 13.5 3.7 13.7 3.6 14 3.5 14.2 2.6 17.5 1.7 20.8 1.1 21.5 .7 21.9 .5 22.1 .3 22.2 .1 22.2 0 22.1-.2 21.6-.4 21.1-.6 20.5-.7 20-1.7 15.8-2.1 10-1.2 4.6-.9 3-.5 1.4 0 0" fill-rule="evenodd"/>
<path transform="matrix(1,0,0,-1,223.6,125.07599)" d="M0 0C-4.9-5.6-9.8-11.6-14.4-17.9-19-24.1-23.4-30.7-27.5-37.6-31.7-44.5-35.5-51.7-39.1-59.2-42.7-66.7-45.9-74.4-48.8-82.3-51.6-90.3-54.1-98.5-56.2-106.8-58.3-115.2-60-123.7-61.3-132.3-63.8-149.7-64.5-167.3-63.4-184.9-62.3-202.6-59.4-220-54.8-236.8-52.5-245.3-49.7-253.5-46.6-261.5-43.5-269.6-40-277.4-36.2-284.9-32.3-292.5-28.2-299.7-23.7-306.7-19.3-313.7-14.5-320.3-9.6-326.6-4.6-333 .6-339 5.9-344.6 11.3-350.3 16.8-355.6 22.5-360.6 28.1-365.6 34.1-370.4 40.4-375 46.6-379.6 53.2-384 60.1-388.2 67-392.3 74.2-396.2 81.7-399.8 89.2-403.3 96.9-406.5 104.8-409.4 112.8-412.3 121-414.8 129.3-416.9 137.7-419 146.2-420.7 154.8-421.9 172.1-424.5 189.8-425.2 207.4-424.1 225.1-423 242.5-420.1 259.3-415.4 267.8-413.1 276-410.4 284-407.3 292.1-404.2 299.9-400.7 307.4-396.8 315-393 322.2-388.8 329.2-384.4 336.1-379.9 342.8-375.2 349.1-370.2 355.5-365.3 361.5-360.1 367.1-354.7 372.8-349.4 378.1-343.8 383.1-338.2 388.1-332.6 392.9-326.6 397.5-320.3 402.1-314 406.5-307.4 410.7-300.5 414.8-293.6 418.7-286.4 422.2-279 425.8-271.5 429-263.8 431.9-255.8 434.8-247.9 437.3-239.7 439.4-231.3 441.5-223 443.2-214.5 444.4-205.8 446.9-188.5 447.7-170.9 446.6-153.2 445.5-135.6 442.6-118.2 437.9-101.3 435.6-92.9 432.9-84.7 429.8-76.6 426.7-68.6 423.2-60.8 419.3-53.2 415.5-45.7 411.3-38.4 406.9-31.5 402.4-24.5 397.7-17.9 392.7-11.5 387.8-5.2 382.6 .8 377.2 6.5 371.9 12.1 366.3 17.5 360.7 22.5 355 27.4 349.1 32.3 342.8 36.9 336.5 41.5 329.9 45.9 323 50 316.1 54.2 308.9 58 301.5 61.6 294 65.2 286.3 68.4 278.3 71.3 270.4 74.1 262.2 76.6 253.8 78.7 245.5 80.8 237 82.5 228.3 83.8 211 86.3 193.4 87 175.7 85.9 158.1 84.8 140.7 81.9 123.8 77.3 115.4 75 107.1 72.2 99.1 69.1 91.1 66 83.3 62.5 75.7 58.7 68.2 54.8 60.9 50.7 54 46.2 47 41.8 40.3 37 34 32.1 27.7 27.1 21.7 21.9 16 16.6 10.3 11.2 5 5.7 0 0M338.8-299.1C335-303.5 330.9-307.7 326.6-311.8 322.2-315.9 317.6-319.9 312.7-323.7 307.9-327.6 302.7-331.2 297.4-334.6 292-338 286.4-341.2 280.6-344.2 274.8-347.1 268.8-349.8 262.7-352.2 256.5-354.6 250.2-356.7 243.7-358.5 230.7-362.1 217.3-364.3 203.8-365.2 190.2-366 176.6-365.4 163.3-363.5 156.7-362.5 150.1-361.2 143.7-359.6 137.3-358 131-356.1 124.9-353.9 118.8-351.7 112.8-349.2 107.1-346.4 101.3-343.7 95.8-340.7 90.5-337.5 85.2-334.4 80.1-331 75.3-327.4 70.5-323.9 65.9-320.2 61.5-316.3 57.2-312.5 53-308.4 48.8-304.1 44.7-299.7 40.7-295.1 36.9-290.2 33.1-285.4 29.5-280.2 26-274.9 22.6-269.5 19.4-263.9 16.5-258.1 13.5-252.3 10.8-246.3 8.4-240.2 6-234 3.9-227.7 2.2-221.2-1.4-208.2-3.7-194.8-4.5-181.3-5.3-167.7-4.8-154.1-2.8-140.8-1.9-134.2-.6-127.6 1-121.2 2.7-114.8 4.6-108.5 6.8-102.4 9-96.3 11.5-90.3 14.2-84.6 16.9-78.8 19.9-73.3 23.1-68 26.3-62.7 29.7-57.6 33.2-52.8 36.8-48 40.5-43.4 44.3-39 48.1-34.7 52.2-30.5 56.6-26.3 60.9-22.2 65.6-18.2 70.4-14.4 75.3-10.6 80.4-7 85.8-3.5 91.1-.1 96.7 3.1 102.5 6 108.3 9 114.3 11.7 120.5 14.1 126.7 16.5 133 18.6 139.5 20.3 152.4 23.9 165.8 26.2 179.4 27 193 27.8 206.5 27.3 219.8 25.3 226.5 24.4 233 23.1 239.4 21.5 245.9 19.8 252.1 17.9 258.3 15.7 264.4 13.5 270.3 11 276.1 8.3 281.8 5.5 287.3 2.6 292.6-.6 297.9-3.8 303-7.2 307.8-10.7 312.7-14.3 317.3-18 321.6-21.8 325.9-25.6 330.2-29.7 334.3-34.1 338.4-38.5 342.4-43.1 346.2-47.9 350-52.8 353.7-57.9 357.1-63.3 360.5-68.6 363.7-74.2 366.7-80 369.6-85.8 372.3-91.8 374.7-98 377.1-104.2 379.2-110.5 381-117 384.6-129.9 386.8-143.3 387.7-156.9 388.5-170.5 387.9-184 386-197.3 385-204 383.7-210.5 382.1-216.9 380.5-223.4 378.6-229.7 376.4-235.8 374.2-241.9 371.7-247.8 368.9-253.6 366.2-259.3 363.2-264.8 360-270.1 356.9-275.4 353.5-280.5 349.9-285.4 346.4-290.2 342.7-294.8 338.8-299.1" fill-rule="evenodd"/>
<path transform="matrix(1,0,0,-1,355.6,61.875978)" stroke-width="0" stroke-linecap="butt" stroke-linejoin="bevel" fill="none" stroke="#f0f0f0" d="M0 0 8.5 2.3"/>
<path transform="matrix(1,0,0,-1,364.1,59.57599)" stroke-width="0" stroke-linecap="butt" stroke-linejoin="bevel" fill="none" stroke="#f0f0f0" d="M0 0 18.6-35"/>
<path transform="matrix(1,0,0,-1,382.7,94.57599)" stroke-width="0" stroke-linecap="butt" stroke-linejoin="bevel" fill="none" stroke="#f0f0f0" d="M0 0-8.1-2.4"/>
<path transform="matrix(1,0,0,-1,374.6,96.97601)" stroke-width="0" stroke-linecap="butt" stroke-linejoin="bevel" fill="none" stroke="#f0f0f0" d="M0 0-3.5 6.1"/>
<path transform="matrix(1,0,0,-1,371.1,90.87601)" stroke-width="0" stroke-linecap="butt" stroke-linejoin="bevel" fill="none" stroke="#f0f0f0" d="M0 0-7-1.3"/>
<path transform="matrix(1,0,0,-1,364.1,92.175998)" stroke-width="0" stroke-linecap="butt" stroke-linejoin="bevel" fill="none" stroke="#f0f0f0" d="M0 0-.3-6.3"/>
<path transform="matrix(1,0,0,-1,363.8,98.47601)" stroke-width="0" stroke-linecap="butt" stroke-linejoin="bevel" fill="none" stroke="#f0f0f0" d="M0 0-8.2-1.5"/>
<path transform="matrix(1,0,0,-1,355.6,99.97601)" stroke-width="0" stroke-linecap="butt" stroke-linejoin="bevel" fill="none" stroke="#f0f0f0" d="M0 0V38.1"/>
<path transform="matrix(1,0,0,-1,362.6,72.07599)" stroke-width="0" stroke-linecap="butt" stroke-linejoin="bevel" fill="none" stroke="#f0f0f0" d="M0 0V-13.5"/>
<path transform="matrix(1,0,0,-1,362.6,85.57599)" stroke-width="0" stroke-linecap="butt" stroke-linejoin="bevel" fill="none" stroke="#f0f0f0" d="M0 0 5.6 1.2"/>
<path transform="matrix(1,0,0,-1,368.2,84.37601)" stroke-width="0" stroke-linecap="butt" stroke-linejoin="bevel" fill="none" stroke="#f0f0f0" d="M0 0-5.6 12.3"/>
<path transform="matrix(1,0,0,-1,447.6,57.07599)" stroke-width="0" stroke-linecap="butt" stroke-linejoin="bevel" fill="none" stroke="#f0f0f0" d="M0 0 8.3-1.1"/>
<path transform="matrix(1,0,0,-1,455.9,58.176027)" stroke-width="0" stroke-linecap="butt" stroke-linejoin="bevel" fill="none" stroke="#f0f0f0" d="M0 0-5.6-36.9"/>
<path transform="matrix(1,0,0,-1,450.3,95.07599)" stroke-width="0" stroke-linecap="butt" stroke-linejoin="bevel" fill="none" stroke="#f0f0f0" d="M0 0-8.8 1.3"/>
<path transform="matrix(1,0,0,-1,441.5,93.776)" stroke-width="0" stroke-linecap="butt" stroke-linejoin="bevel" fill="none" stroke="#f0f0f0" d="M0 0 6.1 36.7"/>
<path transform="matrix(1,0,0,-1,488.2,51.676027)" stroke-width="0" stroke-linecap="butt" stroke-linejoin="bevel" fill="none" stroke="#f0f0f0" d="M0 0-7.9-6.6"/>
<path transform="matrix(1,0,0,-1,480.3,58.276)" stroke-width="0" stroke-linecap="butt" stroke-linejoin="bevel" fill="none" stroke="#f0f0f0" d="M0 0 4.4-2.2"/>
<path transform="matrix(1,0,0,-1,484.7,60.476015)" stroke-width="0" stroke-linecap="butt" stroke-linejoin="bevel" fill="none" stroke="#f0f0f0" d="M0 0 9.3 6.3"/>
<path transform="matrix(1,0,0,-1,494,54.176027)" stroke-width="0" stroke-linecap="butt" stroke-linejoin="bevel" fill="none" stroke="#f0f0f0" d="M0 0-5.8 2.5"/>
<path transform="matrix(1,0,0,-1,405.1,53.676027)" stroke-width="0" stroke-linecap="butt" stroke-linejoin="bevel" fill="none" stroke="#f0f0f0" d="M0 0 .1-7.9"/>
<path transform="matrix(1,0,0,-1,407.8,83.675998)" stroke-width="0" stroke-linecap="butt" stroke-linejoin="bevel" fill="none" stroke="#f0f0f0" d="M0 0 .8-7.9"/>
<path transform="matrix(1,0,0,-1,437.4,54.375978)" stroke-width="0" stroke-linecap="butt" stroke-linejoin="bevel" fill="none" stroke="#f0f0f0" d="M0 0-.8-7.8"/>
<path transform="matrix(1,0,0,-1,435.9,85.37601)" stroke-width="0" stroke-linecap="butt" stroke-linejoin="bevel" fill="none" stroke="#f0f0f0" d="M0 0-.5-7.8"/>
<path transform="matrix(1,0,0,-1,484.3,61.57599)" stroke-width="0" stroke-linecap="butt" stroke-linejoin="bevel" fill="none" stroke="#f0f0f0" d="M0 0C-3.8 1.2-8 .2-11.8-2.6-15.6-5.4-18.6-9.9-20.1-15-21.6-20.1-21.6-25.4-20-29.9-18.4-34.3-15.3-37.4-11.5-38.6-7.7-39.7-3.4-38.8 .3-36 4.1-33.1 7.1-28.7 8.6-23.6 10.2-18.4 10.1-13.1 8.5-8.7 6.9-4.2 3.8-1.1 0 0"/>
<path transform="matrix(1,0,0,-1,481.8,69.47601)" stroke-width="0" stroke-linecap="butt" stroke-linejoin="bevel" fill="none" stroke="#f0f0f0" d="M0 0C-1.6 .4-3.4-.3-5.1-2.2-6.8-4-8.3-6.7-9.2-9.7-10-12.7-10.2-15.7-9.7-18.2-9.2-20.6-8.1-22.2-6.5-22.7-4.9-23.1-3.1-22.4-1.4-20.6 .4-18.8 1.8-16.1 2.7-13.1 3.5-10.1 3.7-7 3.2-4.6 2.7-2.1 1.6-.5 0 0"/>
<path transform="matrix(1,0,0,-1,405.1,53.676027)" stroke-width="0" stroke-linecap="butt" stroke-linejoin="bevel" fill="none" stroke="#f0f0f0" d="M0 0C-5.8 .7-11.5-1.3-15.7-5.4-19.8-9.5-21.9-15.2-21.4-21-20.9-26.8-17.7-32.1-12.9-35.4-8.1-38.6-2.1-39.5 3.5-37.9"/>
<path transform="matrix(1,0,0,-1,405.2,61.57599)" stroke-width="0" stroke-linecap="butt" stroke-linejoin="bevel" fill="none" stroke="#f0f0f0" d="M0 0C-3.7 .7-7.4-.4-10.1-2.9-12.8-5.5-14.2-9.1-13.7-12.8-13.3-16.5-11.1-19.7-7.9-21.6-4.7-23.4-.8-23.6 2.6-22.1"/>
<path transform="matrix(1,0,0,-1,437.4,54.375978)" stroke-width="0" stroke-linecap="butt" stroke-linejoin="bevel" fill="none" stroke="#f0f0f0" d="M0 0C-5.8 1.7-12.1 .6-17-3-22-6.5-25-12.1-25.3-18.1-25.6-24.2-23.2-30.1-18.6-34.1-14.1-38.1-8-39.9-2-38.8"/>
<path transform="matrix(1,0,0,-1,435.9,85.37601)" stroke-width="0" stroke-linecap="butt" stroke-linejoin="bevel" fill="none" stroke="#f0f0f0" d="M0 0C-3.8-1.3-8-.6-11.3 1.8-14.5 4.2-16.4 8.1-16.2 12.1-16.1 16.1-14.1 19.8-10.7 22-7.3 24.3-3.1 24.7 .7 23.2"/>
<path transform="matrix(1,0,0,-1,261.4,436.476)" stroke-width="0" stroke-linecap="butt" stroke-linejoin="bevel" fill="none" stroke="#f0f0f0" d="M0 0 6.5-6.9"/>
<path transform="matrix(1,0,0,-1,267.9,443.376)" stroke-width="0" stroke-linecap="butt" stroke-linejoin="bevel" fill="none" stroke="#f0f0f0" d="M0 0-21.4-33.8"/>
<path transform="matrix(1,0,0,-1,246.5,477.176)" stroke-width="0" stroke-linecap="butt" stroke-linejoin="bevel" fill="none" stroke="#f0f0f0" d="M0 0-6.4 6.3"/>
<path transform="matrix(1,0,0,-1,240.1,470.876)" stroke-width="0" stroke-linecap="butt" stroke-linejoin="bevel" fill="none" stroke="#f0f0f0" d="M0 0 4 5.7"/>
<path transform="matrix(1,0,0,-1,244.1,465.176)" stroke-width="0" stroke-linecap="butt" stroke-linejoin="bevel" fill="none" stroke="#f0f0f0" d="M0 0-5.8 6"/>
<path transform="matrix(1,0,0,-1,238.3,459.176)" stroke-width="0" stroke-linecap="butt" stroke-linejoin="bevel" fill="none" stroke="#f0f0f0" d="M0 0-5.3-3.7"/>
<path transform="matrix(1,0,0,-1,233,462.876)" stroke-width="0" stroke-linecap="butt" stroke-linejoin="bevel" fill="none" stroke="#f0f0f0" d="M0 0-6.1 6.8"/>
<path transform="matrix(1,0,0,-1,226.9,456.076)" stroke-width="0" stroke-linecap="butt" stroke-linejoin="bevel" fill="none" stroke="#f0f0f0" d="M0 0 34.5 19.6"/>
<path transform="matrix(1,0,0,-1,256.3,447.576)" stroke-width="0" stroke-linecap="butt" stroke-linejoin="bevel" fill="none" stroke="#f0f0f0" d="M0 0-7.5-11"/>
<path transform="matrix(1,0,0,-1,248.8,458.576)" stroke-width="0" stroke-linecap="butt" stroke-linejoin="bevel" fill="none" stroke="#f0f0f0" d="M0 0-3.3 3.6"/>
<path transform="matrix(1,0,0,-1,245.5,454.976)" stroke-width="0" stroke-linecap="butt" stroke-linejoin="bevel" fill="none" stroke="#f0f0f0" d="M0 0 10.8 7.4"/>
<path transform="matrix(1,0,0,-1,275.3,450.776)" stroke-width="0" stroke-linecap="butt" stroke-linejoin="bevel" fill="none" stroke="#f0f0f0" d="M0 0 7.6-6"/>
<path transform="matrix(1,0,0,-1,282.9,456.776)" stroke-width="0" stroke-linecap="butt" stroke-linejoin="bevel" fill="none" stroke="#f0f0f0" d="M0 0-8.1-25.2"/>
<path transform="matrix(1,0,0,-1,274.8,481.976)" stroke-width="0" stroke-linecap="butt" stroke-linejoin="bevel" fill="none" stroke="#f0f0f0" d="M0 0 15.1 19.9"/>
<path transform="matrix(1,0,0,-1,289.9,462.076)" stroke-width="0" stroke-linecap="butt" stroke-linejoin="bevel" fill="none" stroke="#f0f0f0" d="M0 0 6.8-5.1"/>
<path transform="matrix(1,0,0,-1,296.7,467.176)" stroke-width="0" stroke-linecap="butt" stroke-linejoin="bevel" fill="none" stroke="#f0f0f0" d="M0 0-23.6-31.1"/>
<path transform="matrix(1,0,0,-1,273.1,498.276)" stroke-width="0" stroke-linecap="butt" stroke-linejoin="bevel" fill="none" stroke="#f0f0f0" d="M0 0-7.8 5.9"/>
<path transform="matrix(1,0,0,-1,265.3,492.376)" stroke-width="0" stroke-linecap="butt" stroke-linejoin="bevel" fill="none" stroke="#f0f0f0" d="M0 0 8 23.8"/>
<path transform="matrix(1,0,0,-1,273.3,468.576)" stroke-width="0" stroke-linecap="butt" stroke-linejoin="bevel" fill="none" stroke="#f0f0f0" d="M0 0-15.2-18.2"/>
<path transform="matrix(1,0,0,-1,258.1,486.776)" stroke-width="0" stroke-linecap="butt" stroke-linejoin="bevel" fill="none" stroke="#f0f0f0" d="M0 0-6.4 5.3"/>
<path transform="matrix(1,0,0,-1,251.7,481.476)" stroke-width="0" stroke-linecap="butt" stroke-linejoin="bevel" fill="none" stroke="#f0f0f0" d="M0 0 23.6 30.7"/>
<path transform="matrix(1,0,0,-1,299.9,469.276)" stroke-width="0" stroke-linecap="butt" stroke-linejoin="bevel" fill="none" stroke="#f0f0f0" d="M0 0 18.5-10.4"/>
<path transform="matrix(1,0,0,-1,318.4,479.676)" stroke-width="0" stroke-linecap="butt" stroke-linejoin="bevel" fill="none" stroke="#f0f0f0" d="M0 0-3.6-6.4"/>
<path transform="matrix(1,0,0,-1,314.8,486.076)" stroke-width="0" stroke-linecap="butt" stroke-linejoin="bevel" fill="none" stroke="#f0f0f0" d="M0 0-5.4 2.9"/>
<path transform="matrix(1,0,0,-1,309.4,483.176)" stroke-width="0" stroke-linecap="butt" stroke-linejoin="bevel" fill="none" stroke="#f0f0f0" d="M0 0-16.6-27.6"/>
<path transform="matrix(1,0,0,-1,292.8,510.776)" stroke-width="0" stroke-linecap="butt" stroke-linejoin="bevel" fill="none" stroke="#f0f0f0" d="M0 0-7.7 4.7"/>
<path transform="matrix(1,0,0,-1,285.1,506.076)" stroke-width="0" stroke-linecap="butt" stroke-linejoin="bevel" fill="none" stroke="#f0f0f0" d="M0 0 16.4 27.3"/>
<path transform="matrix(1,0,0,-1,301.5,478.776)" stroke-width="0" stroke-linecap="butt" stroke-linejoin="bevel" fill="none" stroke="#f0f0f0" d="M0 0-5.5 3.3"/>
<path transform="matrix(1,0,0,-1,296,475.476)" stroke-width="0" stroke-linecap="butt" stroke-linejoin="bevel" fill="none" stroke="#f0f0f0" d="M0 0 3.9 6.2"/>
<path transform="matrix(1,0,0,-1,324,482.976)" stroke-width="0" stroke-linecap="butt" stroke-linejoin="bevel" fill="none" stroke="#f0f0f0" d="M0 0 7.8-3.3"/>
<path transform="matrix(1,0,0,-1,331.8,486.276)" stroke-width="0" stroke-linecap="butt" stroke-linejoin="bevel" fill="none" stroke="#f0f0f0" d="M0 0-16.1-35.6"/>
<path transform="matrix(1,0,0,-1,315.7,521.876)" stroke-width="0" stroke-linecap="butt" stroke-linejoin="bevel" fill="none" stroke="#f0f0f0" d="M0 0-7.7 3.5"/>
<path transform="matrix(1,0,0,-1,308,518.376)" stroke-width="0" stroke-linecap="butt" stroke-linejoin="bevel" fill="none" stroke="#f0f0f0" d="M0 0 16 35.4"/>
<path transform="matrix(1,0,0,-1,337.7,488.676)" stroke-width="0" stroke-linecap="butt" stroke-linejoin="bevel" fill="none" stroke="#f0f0f0" d="M0 0 7.8-2.9"/>
<path transform="matrix(1,0,0,-1,345.5,491.576)" stroke-width="0" stroke-linecap="butt" stroke-linejoin="bevel" fill="none" stroke="#f0f0f0" d="M0 0-5.2-13.9"/>
<path transform="matrix(1,0,0,-1,340.3,505.476)" stroke-width="0" stroke-linecap="butt" stroke-linejoin="bevel" fill="none" stroke="#f0f0f0" d="M0 0 9.7-3.6"/>
<path transform="matrix(1,0,0,-1,350,509.076)" stroke-width="0" stroke-linecap="butt" stroke-linejoin="bevel" fill="none" stroke="#f0f0f0" d="M0 0 5.1 13.9"/>
<path transform="matrix(1,0,0,-1,355.1,495.176)" stroke-width="0" stroke-linecap="butt" stroke-linejoin="bevel" fill="none" stroke="#f0f0f0" d="M0 0 7.8-2.8"/>
<path transform="matrix(1,0,0,-1,362.9,497.976)" stroke-width="0" stroke-linecap="butt" stroke-linejoin="bevel" fill="none" stroke="#f0f0f0" d="M0 0-12.3-36.6"/>
<path transform="matrix(1,0,0,-1,350.6,534.576)" stroke-width="0" stroke-linecap="butt" stroke-linejoin="bevel" fill="none" stroke="#f0f0f0" d="M0 0-8.3 2.8"/>
<path transform="matrix(1,0,0,-1,342.3,531.776)" stroke-width="0" stroke-linecap="butt" stroke-linejoin="bevel" fill="none" stroke="#f0f0f0" d="M0 0 5.4 15.9"/>
<path transform="matrix(1,0,0,-1,347.7,515.876)" stroke-width="0" stroke-linecap="butt" stroke-linejoin="bevel" fill="none" stroke="#f0f0f0" d="M0 0-8 2.7"/>
<path transform="matrix(1,0,0,-1,339.7,513.176)" stroke-width="0" stroke-linecap="butt" stroke-linejoin="bevel" fill="none" stroke="#f0f0f0" d="M0 0-5.5-16.4"/>
<path transform="matrix(1,0,0,-1,334.2,529.576)" stroke-width="0" stroke-linecap="butt" stroke-linejoin="bevel" fill="none" stroke="#f0f0f0" d="M0 0-9.2 3.1"/>
<path transform="matrix(1,0,0,-1,325,526.476)" stroke-width="0" stroke-linecap="butt" stroke-linejoin="bevel" fill="none" stroke="#f0f0f0" d="M0 0 12.7 37.8"/>
<path transform="matrix(1,0,0,-1,375,499.976)" stroke-width="0" stroke-linecap="butt" stroke-linejoin="bevel" fill="none" stroke="#f0f0f0" d="M0 0 8.8-1.2"/>
<path transform="matrix(1,0,0,-1,383.8,501.176)" stroke-width="0" stroke-linecap="butt" stroke-linejoin="bevel" fill="none" stroke="#f0f0f0" d="M0 0 2.7-40.7"/>
<path transform="matrix(1,0,0,-1,386.5,541.876)" stroke-width="0" stroke-linecap="butt" stroke-linejoin="bevel" fill="none" stroke="#f0f0f0" d="M0 0-7.9 1.2"/>
<path transform="matrix(1,0,0,-1,378.6,540.676)" stroke-width="0" stroke-linecap="butt" stroke-linejoin="bevel" fill="none" stroke="#f0f0f0" d="M0 0-.8 6.5"/>
<path transform="matrix(1,0,0,-1,377.8,534.176)" stroke-width="0" stroke-linecap="butt" stroke-linejoin="bevel" fill="none" stroke="#f0f0f0" d="M0 0-8 1.5"/>
<path transform="matrix(1,0,0,-1,369.8,532.676)" stroke-width="0" stroke-linecap="butt" stroke-linejoin="bevel" fill="none" stroke="#f0f0f0" d="M0 0-4.3-6.9"/>
<path transform="matrix(1,0,0,-1,365.5,539.576)" stroke-width="0" stroke-linecap="butt" stroke-linejoin="bevel" fill="none" stroke="#f0f0f0" d="M0 0-7.7 2.3"/>
<path transform="matrix(1,0,0,-1,357.8,537.276)" stroke-width="0" stroke-linecap="butt" stroke-linejoin="bevel" fill="none" stroke="#f0f0f0" d="M0 0 17.2 37.3"/>
<path transform="matrix(1,0,0,-1,376.8,512.976)" stroke-width="0" stroke-linecap="butt" stroke-linejoin="bevel" fill="none" stroke="#f0f0f0" d="M0 0-4.9-12.5"/>
<path transform="matrix(1,0,0,-1,371.9,525.476)" stroke-width="0" stroke-linecap="butt" stroke-linejoin="bevel" fill="none" stroke="#f0f0f0" d="M0 0 5.6-1"/>
<path transform="matrix(1,0,0,-1,377.5,526.476)" stroke-width="0" stroke-linecap="butt" stroke-linejoin="bevel" fill="none" stroke="#f0f0f0" d="M0 0-.7 13.5"/>
<path transform="matrix(1,0,0,-1,396.9,503.076)" stroke-width="0" stroke-linecap="butt" stroke-linejoin="bevel" fill="none" stroke="#f0f0f0" d="M0 0H8.1"/>
<path transform="matrix(1,0,0,-1,405,503.076)" stroke-width="0" stroke-linecap="butt" stroke-linejoin="bevel" fill="none" stroke="#f0f0f0" d="M0 0-1.2-30.9"/>
<path transform="matrix(1,0,0,-1,403.8,533.976)" stroke-width="0" stroke-linecap="butt" stroke-linejoin="bevel" fill="none" stroke="#f0f0f0" d="M0 0 10.1-.4"/>
<path transform="matrix(1,0,0,-1,413.9,534.376)" stroke-width="0" stroke-linecap="butt" stroke-linejoin="bevel" fill="none" stroke="#f0f0f0" d="M0 0-.3-7.6"/>
<path transform="matrix(1,0,0,-1,413.6,541.976)" stroke-width="0" stroke-linecap="butt" stroke-linejoin="bevel" fill="none" stroke="#f0f0f0" d="M0 0-19.4 .8"/>
<path transform="matrix(1,0,0,-1,394.2,541.176)" stroke-width="0" stroke-linecap="butt" stroke-linejoin="bevel" fill="none" stroke="#f0f0f0" d="M0 0 2.7 38.1"/>
<path transform="matrix(1,0,0,-1,419.4,502.876)" stroke-width="0" stroke-linecap="butt" stroke-linejoin="bevel" fill="none" stroke="#f0f0f0" d="M0 0H8"/>
<path transform="matrix(1,0,0,-1,427.4,502.876)" stroke-width="0" stroke-linecap="butt" stroke-linejoin="bevel" fill="none" stroke="#f0f0f0" d="M0 0 1.3-30.4"/>
<path transform="matrix(1,0,0,-1,428.7,533.276)" stroke-width="0" stroke-linecap="butt" stroke-linejoin="bevel" fill="none" stroke="#f0f0f0" d="M0 0 9.5 .4"/>
<path transform="matrix(1,0,0,-1,438.2,532.876)" stroke-width="0" stroke-linecap="butt" stroke-linejoin="bevel" fill="none" stroke="#f0f0f0" d="M0 0 .3-7.9"/>
<path transform="matrix(1,0,0,-1,438.5,540.776)" stroke-width="0" stroke-linecap="butt" stroke-linejoin="bevel" fill="none" stroke="#f0f0f0" d="M0 0-17.5-1.1"/>
<path transform="matrix(1,0,0,-1,421,541.876)" stroke-width="0" stroke-linecap="butt" stroke-linejoin="bevel" fill="none" stroke="#f0f0f0" d="M0 0-1.6 39"/>
<path transform="matrix(1,0,0,-1,476.5,495.676)" stroke-width="0" stroke-linecap="butt" stroke-linejoin="bevel" fill="none" stroke="#f0f0f0" d="M0 0 12.9-22.7"/>
<path transform="matrix(1,0,0,-1,489.4,518.376)" stroke-width="0" stroke-linecap="butt" stroke-linejoin="bevel" fill="none" stroke="#f0f0f0" d="M0 0-3.1 26.2"/>
<path transform="matrix(1,0,0,-1,486.3,492.176)" stroke-width="0" stroke-linecap="butt" stroke-linejoin="bevel" fill="none" stroke="#f0f0f0" d="M0 0 5.5 2.5"/>
<path transform="matrix(1,0,0,-1,491.8,489.676)" stroke-width="0" stroke-linecap="butt" stroke-linejoin="bevel" fill="none" stroke="#f0f0f0" d="M0 0 14.2-20.8"/>
<path transform="matrix(1,0,0,-1,506,510.476)" stroke-width="0" stroke-linecap="butt" stroke-linejoin="bevel" fill="none" stroke="#f0f0f0" d="M0 0-4.2 24.8"/>
<path transform="matrix(1,0,0,-1,501.8,485.676)" stroke-width="0" stroke-linecap="butt" stroke-linejoin="bevel" fill="none" stroke="#f0f0f0" d="M0 0 7.5 2.9"/>
<path transform="matrix(1,0,0,-1,509.3,482.776)" stroke-width="0" stroke-linecap="butt" stroke-linejoin="bevel" fill="none" stroke="#f0f0f0" d="M0 0 6.2-39.7"/>
<path transform="matrix(1,0,0,-1,515.5,522.476)" stroke-width="0" stroke-linecap="butt" stroke-linejoin="bevel" fill="none" stroke="#f0f0f0" d="M0 0-7.7-3.3"/>
<path transform="matrix(1,0,0,-1,507.8,525.776)" stroke-width="0" stroke-linecap="butt" stroke-linejoin="bevel" fill="none" stroke="#f0f0f0" d="M0 0-13.8 22"/>
<path transform="matrix(1,0,0,-1,494,503.776)" stroke-width="0" stroke-linecap="butt" stroke-linejoin="bevel" fill="none" stroke="#f0f0f0" d="M0 0 4-25.7"/>
<path transform="matrix(1,0,0,-1,498,529.476)" stroke-width="0" stroke-linecap="butt" stroke-linejoin="bevel" fill="none" stroke="#f0f0f0" d="M0 0-8-3.5"/>
<path transform="matrix(1,0,0,-1,490,532.976)" stroke-width="0" stroke-linecap="butt" stroke-linejoin="bevel" fill="none" stroke="#f0f0f0" d="M0 0-21.8 34.7"/>
<path transform="matrix(1,0,0,-1,468.2,498.276)" stroke-width="0" stroke-linecap="butt" stroke-linejoin="bevel" fill="none" stroke="#f0f0f0" d="M0 0 7.9 3.4"/>
<path transform="matrix(1,0,0,-1,476.1,494.876)" stroke-width="0" stroke-linecap="butt" stroke-linejoin="bevel" fill="none" stroke="#f0f0f0" d="M0 0 .4-.8"/>
<path transform="matrix(1,0,0,-1,511.5,481.476)" stroke-width="0" stroke-linecap="butt" stroke-linejoin="bevel" fill="none" stroke="#f0f0f0" d="M0 0 18.5-33.1"/>
<path transform="matrix(1,0,0,-1,530,514.576)" stroke-width="0" stroke-linecap="butt" stroke-linejoin="bevel" fill="none" stroke="#f0f0f0" d="M0 0 16 8.9"/>
<path transform="matrix(1,0,0,-1,546,505.676)" stroke-width="0" stroke-linecap="butt" stroke-linejoin="bevel" fill="none" stroke="#f0f0f0" d="M0 0-3.9 7"/>
<path transform="matrix(1,0,0,-1,542.1,498.676)" stroke-width="0" stroke-linecap="butt" stroke-linejoin="bevel" fill="none" stroke="#f0f0f0" d="M0 0-7.7-4.3"/>
<path transform="matrix(1,0,0,-1,534.4,502.976)" stroke-width="0" stroke-linecap="butt" stroke-linejoin="bevel" fill="none" stroke="#f0f0f0" d="M0 0-3.8 6.8"/>
<path transform="matrix(1,0,0,-1,530.6,496.176)" stroke-width="0" stroke-linecap="butt" stroke-linejoin="bevel" fill="none" stroke="#f0f0f0" d="M0 0 7.7 4.3"/>
<path transform="matrix(1,0,0,-1,538.3,491.876)" stroke-width="0" stroke-linecap="butt" stroke-linejoin="bevel" fill="none" stroke="#f0f0f0" d="M0 0-4.3 7.7"/>
<path transform="matrix(1,0,0,-1,534,484.176)" stroke-width="0" stroke-linecap="butt" stroke-linejoin="bevel" fill="none" stroke="#f0f0f0" d="M0 0-7.7-4.3"/>
<path transform="matrix(1,0,0,-1,526.3,488.476)" stroke-width="0" stroke-linecap="butt" stroke-linejoin="bevel" fill="none" stroke="#f0f0f0" d="M0 0-3.3 5.9"/>
<path transform="matrix(1,0,0,-1,523,482.576)" stroke-width="0" stroke-linecap="butt" stroke-linejoin="bevel" fill="none" stroke="#f0f0f0" d="M0 0 7.6 4.3"/>
<path transform="matrix(1,0,0,-1,530.6,478.276)" stroke-width="0" stroke-linecap="butt" stroke-linejoin="bevel" fill="none" stroke="#f0f0f0" d="M0 0-3.1 5.7"/>
<path transform="matrix(1,0,0,-1,527.5,472.576)" stroke-width="0" stroke-linecap="butt" stroke-linejoin="bevel" fill="none" stroke="#f0f0f0" d="M0 0-16-8.9"/>
<path transform="matrix(1,0,0,-1,532,469.376)" stroke-width="0" stroke-linecap="butt" stroke-linejoin="bevel" fill="none" stroke="#f0f0f0" d="M0 0 13.8 10.4"/>
<path transform="matrix(1,0,0,-1,545.8,458.976)" stroke-width="0" stroke-linecap="butt" stroke-linejoin="bevel" fill="none" stroke="#f0f0f0" d="M0 0 4-5.4"/>
<path transform="matrix(1,0,0,-1,549.8,464.376)" stroke-width="0" stroke-linecap="butt" stroke-linejoin="bevel" fill="none" stroke="#f0f0f0" d="M0 0-7.1-5.3"/>
<path transform="matrix(1,0,0,-1,542.7,469.676)" stroke-width="0" stroke-linecap="butt" stroke-linejoin="bevel" fill="none" stroke="#f0f0f0" d="M0 0 4.6-6.2"/>
<path transform="matrix(1,0,0,-1,547.3,475.876)" stroke-width="0" stroke-linecap="butt" stroke-linejoin="bevel" fill="none" stroke="#f0f0f0" d="M0 0 6.2 4.6"/>
<path transform="matrix(1,0,0,-1,553.5,471.276)" stroke-width="0" stroke-linecap="butt" stroke-linejoin="bevel" fill="none" stroke="#f0f0f0" d="M0 0 4.6-6.1"/>
<path transform="matrix(1,0,0,-1,558.1,477.376)" stroke-width="0" stroke-linecap="butt" stroke-linejoin="bevel" fill="none" stroke="#f0f0f0" d="M0 0-6.2-4.6"/>
<path transform="matrix(1,0,0,-1,551.9,481.976)" stroke-width="0" stroke-linecap="butt" stroke-linejoin="bevel" fill="none" stroke="#f0f0f0" d="M0 0 4.6-6.1"/>
<path transform="matrix(1,0,0,-1,556.5,488.076)" stroke-width="0" stroke-linecap="butt" stroke-linejoin="bevel" fill="none" stroke="#f0f0f0" d="M0 0 7 5.3"/>
<path transform="matrix(1,0,0,-1,563.5,482.776)" stroke-width="0" stroke-linecap="butt" stroke-linejoin="bevel" fill="none" stroke="#f0f0f0" d="M0 0 5.8-7.7"/>
<path transform="matrix(1,0,0,-1,569.3,490.476)" stroke-width="0" stroke-linecap="butt" stroke-linejoin="bevel" fill="none" stroke="#f0f0f0" d="M0 0-15.1-11.3"/>
<path transform="matrix(1,0,0,-1,554.2,501.776)" stroke-width="0" stroke-linecap="butt" stroke-linejoin="bevel" fill="none" stroke="#f0f0f0" d="M0 0-22.2 32.4"/>
<path transform="matrix(1,0,0,-1,550.6,455.676)" stroke-width="0" stroke-linecap="butt" stroke-linejoin="bevel" fill="none" stroke="#f0f0f0" d="M0 0 26.3-28.1"/>
<path transform="matrix(1,0,0,-1,576.9,483.776)" stroke-width="0" stroke-linecap="butt" stroke-linejoin="bevel" fill="none" stroke="#f0f0f0" d="M0 0 6.4 6"/>
<path transform="matrix(1,0,0,-1,583.3,477.776)" stroke-width="0" stroke-linecap="butt" stroke-linejoin="bevel" fill="none" stroke="#f0f0f0" d="M0 0-15.5 16.5"/>
<path transform="matrix(1,0,0,-1,567.8,461.276)" stroke-width="0" stroke-linecap="butt" stroke-linejoin="bevel" fill="none" stroke="#f0f0f0" d="M0 0 22.6-10.2"/>
<path transform="matrix(1,0,0,-1,590.4,471.476)" stroke-width="0" stroke-linecap="butt" stroke-linejoin="bevel" fill="none" stroke="#f0f0f0" d="M0 0 6.6 6.3"/>
<path transform="matrix(1,0,0,-1,597,465.176)" stroke-width="0" stroke-linecap="butt" stroke-linejoin="bevel" fill="none" stroke="#f0f0f0" d="M0 0-27.2 28.9"/>
<path transform="matrix(1,0,0,-1,569.8,436.276)" stroke-width="0" stroke-linecap="butt" stroke-linejoin="bevel" fill="none" stroke="#f0f0f0" d="M0 0-6.7-6.3"/>
<path transform="matrix(1,0,0,-1,563.1,442.576)" stroke-width="0" stroke-linecap="butt" stroke-linejoin="bevel" fill="none" stroke="#f0f0f0" d="M0 0 15-16"/>
<path transform="matrix(1,0,0,-1,578.1,458.576)" stroke-width="0" stroke-linecap="butt" stroke-linejoin="bevel" fill="none" stroke="#f0f0f0" d="M0 0-20.2 8.6"/>
<path transform="matrix(1,0,0,-1,557.9,449.976)" stroke-width="0" stroke-linecap="butt" stroke-linejoin="bevel" fill="none" stroke="#f0f0f0" d="M0 0-7.3-5.7"/>
<path transform="matrix(1,0,0,-1,453.7,506.576)" stroke-width="0" stroke-linecap="butt" stroke-linejoin="bevel" fill="none" stroke="#f0f0f0" d="M0 0C-2-.5-3.5-2.3-4.3-5.1-5.1-7.8-5.1-11.3-4.2-14.6-3.3-17.9-1.6-20.9 .4-22.9 2.4-24.9 4.7-25.7 6.7-25.2 8.7-24.7 10.3-22.8 11.1-20.1 11.9-17.4 11.8-13.9 10.9-10.6 10-7.2 8.4-4.2 6.3-2.3 4.3-.3 2 .6 0 0"/>
<path transform="matrix(1,0,0,-1,451.5,497.976)" stroke-width="0" stroke-linecap="butt" stroke-linejoin="bevel" fill="none" stroke="#f0f0f0" d="M0 0C-4.2-1.1-7.6-4.4-9.4-9.1-11.3-13.9-11.5-19.7-10.1-25.3-8.6-30.9-5.5-35.9-1.5-39.1 2.5-42.3 7-43.5 11.2-42.4 15.3-41.3 18.7-38 20.6-33.2 22.5-28.5 22.7-22.7 21.2-17.1 19.7-11.4 16.6-6.5 12.7-3.3 8.7-.1 4.1 1.1 0 0"/>
<path transform="matrix(1,0,0,-1,355.6,99.97601)" d="M0 0 8.2 1.5 8.5 7.8 15.5 9.1 19 3 27.1 5.4 8.5 40.4 0 38.1V0M12.6 15.6 7 14.4V27.9L12.6 15.6" fill="#f0f0f0" fill-rule="evenodd"/>
<path transform="matrix(1,0,0,-1,405.2,61.57599)" d="M0 0-.1 7.9C-1.3 8.1-2.6 8.1-4 8-5.3 7.8-6.7 7.6-8.1 7.1-10.9 6.2-13.6 4.7-15.8 2.5-18 .3-19.6-2.3-20.5-5.1-21-6.5-21.3-7.9-21.5-9.2-21.6-10.6-21.6-11.9-21.5-13.1-21.4-14.4-21.1-15.7-20.7-17-20.3-18.3-19.8-19.6-19.1-20.9-17.6-23.4-15.6-25.7-13-27.5-10.4-29.2-7.6-30.2-4.6-30.6-3.2-30.8-1.8-30.8-.4-30.7 .9-30.6 2.2-30.3 3.4-30L2.6-22.1C1.2-22.7-.5-23.1-2.4-23.1-4.3-23-6.2-22.6-7.9-21.6-9.6-20.6-11-19.2-12-17.6-13-16-13.5-14.4-13.7-12.8-13.9-11.2-13.8-9.5-13.2-7.7-12.6-6-11.6-4.3-10.1-2.9-8.7-1.6-6.9-.6-5.1-.2-3.3 .3-1.6 .3 0 0" fill="#f0f0f0" fill-rule="evenodd"/>
<path transform="matrix(1,0,0,-1,436.6,62.176027)" d="M0 0 .8 7.8C-.4 8.2-1.8 8.4-3.2 8.5-4.6 8.6-6.1 8.6-7.6 8.3-10.6 7.9-13.6 6.7-16.2 4.8-18.9 2.9-20.9 .5-22.3-2.2-23-3.6-23.5-5-23.9-6.3-24.3-7.7-24.5-9-24.5-10.3-24.6-11.6-24.5-13-24.3-14.4-24.1-15.8-23.7-17.2-23.2-18.7-22.1-21.5-20.3-24.2-17.8-26.3-15.4-28.5-12.6-29.9-9.6-30.7-8.1-31.1-6.7-31.3-5.3-31.3-3.8-31.4-2.5-31.3-1.2-31L-.7-23.2C-1.5-23.5-2.4-23.7-3.3-23.8-4.2-23.9-5.2-23.8-6.2-23.7-8.2-23.5-10.2-22.7-12-21.4-13.7-20.1-15-18.4-15.9-16.5-16.3-15.6-16.6-14.7-16.7-13.8-16.9-12.9-17-12-16.9-11.1-16.9-10.3-16.8-9.4-16.6-8.5-16.4-7.6-16-6.7-15.6-5.8-14.6-4-13.2-2.4-11.4-1.2-9.6 0-7.5 .7-5.5 .8-4.5 .9-3.5 .9-2.6 .7-1.7 .6-.8 .3 0 0" fill="#f0f0f0" fill-rule="evenodd"/>
<path transform="matrix(1,0,0,-1,441.5,93.776)" d="M0 0 8.8-1.3 14.4 35.6 6.1 36.7 0 0" fill="#f0f0f0" fill-rule="evenodd"/>
<path transform="matrix(1,0,0,-1,484.3,61.57599)" d="M0 0C-1.7 .5-3.6 .7-5.7 .3-7.7-.2-9.8-1.1-11.8-2.6-13.8-4.1-15.6-6-17-8.2-18.4-10.3-19.4-12.7-20.1-15-21.6-20.1-21.6-25.4-20-29.9-18.4-34.3-15.3-37.4-11.5-38.6-7.7-39.7-3.4-38.8 .3-36 4.1-33.1 7.1-28.7 8.6-23.6 10.2-18.4 10.1-13.1 8.5-8.7 6.9-4.2 3.8-1.1 0 0M-9-30.6C-10.4-30.2-11.7-28.7-12.2-26.1-12.5-24.8-12.6-23.4-12.4-21.9-12.3-20.4-12-18.9-11.7-17.6-10.8-14.6-9.3-11.9-7.6-10.1-5.9-8.2-4.1-7.5-2.5-7.9-1.1-8.3 .2-9.8 .7-12.5 1-13.7 1.1-15.2 1-16.7 .8-18.2 .6-19.6 .2-21-.2-22.3-.8-23.7-1.4-25-2.1-26.3-3-27.5-3.9-28.5-5.7-30.4-7.6-31-9-30.6" fill="#f0f0f0" fill-rule="evenodd"/>
<path transform="matrix(1,0,0,-1,488.2,51.676027)" d="M0 0-7.9-6.6-3.5-8.8 5.8-2.5 0 0" fill="#f0f0f0" fill-rule="evenodd"/>
<path transform="matrix(1,0,0,-1,226.9,456.076)" d="M0 0 6.1-6.8 11.4-3.1 17.2-9.1 13.2-14.8 19.6-21.1 41 12.7 34.5 19.6 0 0M29.4 8.5 21.9-2.5 18.6 1.1 29.4 8.5" fill="#f0f0f0" fill-rule="evenodd"/>
<path transform="matrix(1,0,0,-1,251.7,481.476)" d="M0 0 6.4-5.3 21.6 12.9 13.6-10.9 21.4-16.8 45 14.3 38.2 19.4 23.1-.5 31.2 24.7 23.6 30.7 0 0" fill="#f0f0f0" fill-rule="evenodd"/>
<path transform="matrix(1,0,0,-1,296,475.476)" d="M0 0 5.5-3.3-10.9-30.6-3.2-35.3 13.4-7.7 18.8-10.6 22.4-4.2 3.9 6.2 0 0" fill="#f0f0f0" fill-rule="evenodd"/>
<path transform="matrix(1,0,0,-1,308,518.376)" d="M0 0 7.7-3.5 23.8 32.1 16 35.4 0 0" fill="#f0f0f0" fill-rule="evenodd"/>
<path transform="matrix(1,0,0,-1,325,526.476)" d="M0 0 9.2-3.1 14.7 13.3 22.7 10.6 17.3-5.3 25.6-8.1 37.9 28.5 30.1 31.3 25 17.4 15.3 21 20.5 34.9 12.7 37.8 0 0" fill="#f0f0f0" fill-rule="evenodd"/>
<path transform="matrix(1,0,0,-1,357.8,537.276)" d="M0 0 7.7-2.3 12 4.6 20 3.1 20.8-3.4 28.7-4.6 26 36.1 17.2 37.3 0 0M19.7 10.8 14.1 11.8 19 24.3 19.7 10.8" fill="#f0f0f0" fill-rule="evenodd"/>
<path transform="matrix(1,0,0,-1,394.2,541.176)" d="M0 0 19.4-.8 19.7 6.8 9.6 7.2 10.8 38.1H2.7L0 0" fill="#f0f0f0" fill-rule="evenodd"/>
<path transform="matrix(1,0,0,-1,421,541.876)" d="M0 0 17.5 1.1 17.2 9 7.7 8.6 6.4 39H-1.6L0 0" fill="#f0f0f0" fill-rule="evenodd"/>
<path transform="matrix(1,0,0,-1,451.5,497.976)" d="M0 0C-1.9-.5-3.7-1.5-5.4-3-7.1-4.6-8.5-6.6-9.4-9.1-10.4-11.6-11-14.4-11-17.2-11.1-20.1-10.7-22.8-10.1-25.3-8.6-30.9-5.5-35.9-1.5-39.1 2.5-42.3 7-43.5 11.2-42.4 15.3-41.3 18.7-38 20.6-33.2 22.5-28.5 22.7-22.7 21.2-17.1 20.5-14.5 19.5-12 18-9.6 16.6-7.1 14.8-5 12.7-3.3 10.6-1.6 8.3-.5 6.1 0 3.9 .5 1.8 .5 0 0M8.9-33.8C8-34 7-34 5.9-33.7 4.8-33.3 3.7-32.6 2.6-31.5 1.5-30.5 .6-29.2-.2-27.7-1-26.2-1.6-24.7-2-23.2-2.9-19.8-2.9-16.4-2.1-13.7-1.3-10.9 .2-9.1 2.2-8.6 3.1-8.3 4.1-8.4 5.2-8.7 6.3-9.1 7.5-9.8 8.5-10.9 9.6-11.9 10.6-13.2 11.4-14.7 12.1-16.2 12.7-17.7 13.1-19.2 13.5-20.7 13.8-22.3 13.8-24 13.9-25.6 13.7-27.3 13.3-28.7 12.9-30.1 12.2-31.3 11.5-32.2 10.7-33.1 9.8-33.6 8.9-33.8" fill="#f0f0f0" fill-rule="evenodd"/>
<path transform="matrix(1,0,0,-1,476.1,494.876)" d="M0 0-7.9-3.4 13.9-38.1 21.9-34.6 17.9-8.9 31.7-30.9 39.4-27.6 33.2 12.1 25.7 9.2 29.9-15.6 15.7 5.2 10.2 2.7 13.3-23.5 .4-.8 0 0" fill="#f0f0f0" fill-rule="evenodd"/>
<path transform="matrix(1,0,0,-1,511.5,481.476)" d="M0 0 18.5-33.1 34.5-24.2 30.6-17.2 22.9-21.5 19.1-14.7 26.8-10.4 22.5-2.7 14.8-7 11.5-1.1 19.1 3.2 16 8.9 0 0" fill="#f0f0f0" fill-rule="evenodd"/>
<path transform="matrix(1,0,0,-1,554.2,501.776)" d="M0 0 15.1 11.3 9.3 19 2.3 13.7-2.3 19.8 3.9 24.4-.7 30.5-6.9 25.9-11.5 32.1-4.4 37.4-8.4 42.8-22.2 32.4 0 0" fill="#f0f0f0" fill-rule="evenodd"/>
<path transform="matrix(1,0,0,-1,550.6,455.676)" d="M0 0 26.3-28.1 32.7-22.1 17.2-5.6 39.8-15.8 46.4-9.5 19.2 19.4 12.5 13.1 27.5-2.9 7.3 5.7 0 0" fill="#f0f0f0" fill-rule="evenodd"/>
</g>
</g>
</g>
</g>
</g>
</g>
</svg>
